<svg xmlns="http://www.w3.org/2000/svg" width="102" height="100" viewBox="0 0 102 100"><defs><style>.a,.b,.e,.g{fill:none;}.b,.c,.i{stroke:#0049ad;}.b,.e,.g{stroke-linecap:round;}.b{stroke-miterlimit:10;}.b,.i{stroke-width:4px;}.c,.d,.f,.i{fill:#fff;}.c{stroke-width:3px;}.d,.e{stroke:#ea4335;}.d,.e,.f,.g{stroke-width:2px;}.f,.g{stroke:#007bff;}.h{fill:#0049ad;font-size:20px;font-family:Roboto-Bold, Roboto;font-weight:700;}.j{stroke:none;}</style></defs><g transform="translate(-614 -379)"><rect class="a" width="100" height="100" transform="translate(616 379)"/><g transform="translate(568 347)"><g transform="translate(112 85)"><line class="b" x1="15.835" transform="translate(0 16)"/><line class="b" y2="16" transform="translate(16)"/></g><g transform="translate(48 85)"><line class="b" y1="15.835" transform="translate(0)"/><line class="b" x1="16" transform="translate(0 16)"/></g><g transform="translate(48 49)"><line class="b" x2="15.835" transform="translate(0.165)"/><line class="b" y1="16"/></g></g><g transform="translate(18 14)"><g class="c" transform="translate(622 365)"><rect class="j" width="76" height="32" rx="6"/><rect class="a" x="1.5" y="1.5" width="73" height="29" rx="4.5"/></g><g transform="translate(-1)"><g class="d" transform="translate(632 372)"><circle class="j" cx="6.5" cy="6.5" r="6.5"/><circle class="a" cx="6.5" cy="6.5" r="5.5"/></g><line class="e" x1="9" transform="translate(634 388)"/><line class="e" y2="6" transform="translate(638.5 385)"/></g><g transform="translate(-1)"><g class="f" transform="translate(647 378)"><circle class="j" cx="6.5" cy="6.5" r="6.5"/><circle class="a" cx="6.5" cy="6.5" r="5.5"/></g><line class="g" y2="7" transform="translate(653.5 372)"/><line class="g" x1="4" y2="3.5" transform="translate(649.5 372)"/><line class="g" x2="4" y2="3.5" transform="translate(653.5 372)"/></g><text class="h" transform="translate(665 388)"><tspan x="0" y="0">18</tspan></text></g><g transform="translate(631 419)"><path class="i" d="M50,49.943c0-3.439-4.829-8.05-7.477-9.379-2.882-1.407-5.841-2.736-8.8-3.986-1.713-.782-2.882-2.5-2.336-4.221a5.822,5.822,0,0,1,1.246-2.11c4.128-5.315,6.542-11.255,5.841-18.211C37.928,6.643,34.19,1.876,29.283.625a14.985,14.985,0,0,0-8.567,0c-4.907,1.251-8.645,6.018-9.19,11.411-.7,6.956,1.713,12.818,5.841,18.211a7.186,7.186,0,0,1,1.246,2.11c.545,1.719-.545,3.439-2.336,4.221-2.96,1.251-5.919,2.5-8.8,3.986C4.829,41.893,0,46.5,0,49.943.214,50.071,50,49.943,50,49.943Z"/></g></g></svg>