<svg xmlns="http://www.w3.org/2000/svg" width="102" height="100" viewBox="0 0 102 100">
  <g id="グループ_2792" data-name="グループ 2792" transform="translate(-614 -379)">
    <rect id="長方形_1078" data-name="長方形 1078" width="100" height="100" transform="translate(616 379)" fill="none"/>
    <g id="face_recognition_107922" transform="translate(548.241 335.623)">
      <path id="パス_1114" data-name="パス 1114" d="M189.509,191.55H139.631a6.626,6.626,0,0,1,2.363-5.288,26.377,26.377,0,0,1,9.652-6.254,32.788,32.788,0,0,0,4.417-1.986c2.344-1.175,2.733-4.235,1.029-6.369-5.025-6.3-7.156-13.411-4.917-21.5,1.609-5.821,8.1-8.842,12.178-8.584a24.7,24.7,0,0,1,4.477.642c4.909,1.239,8.66,6.033,9.184,11.435.675,6.964-1.74,12.863-5.867,18.217a7.526,7.526,0,0,0-1.274,2.119c-.554,1.682.589,3.451,2.354,4.207,2.969,1.271,5.931,2.566,8.816,4.017a17.706,17.706,0,0,1,6.561,5.618A4.222,4.222,0,0,1,189.509,191.55Z" transform="translate(-56.864 -58.174)" fill="#fff" stroke="#4991bf" stroke-width="4"/>
    </g>
    <g id="グループ_2779" data-name="グループ 2779" transform="translate(568 347)">
      <g id="グループ_2771" data-name="グループ 2771" transform="translate(112 85)">
        <line id="線_337" data-name="線 337" x1="15.835" transform="translate(0 16)" fill="none" stroke="#4991bf" stroke-linecap="round" stroke-miterlimit="10" stroke-width="4"/>
        <line id="線_338" data-name="線 338" y2="16" transform="translate(16)" fill="none" stroke="#4991bf" stroke-linecap="round" stroke-miterlimit="10" stroke-width="4"/>
      </g>
      <g id="グループ_2772" data-name="グループ 2772" transform="translate(48 85)">
        <line id="線_339" data-name="線 339" y1="15.835" transform="translate(0)" fill="none" stroke="#4991bf" stroke-linecap="round" stroke-miterlimit="10" stroke-width="4"/>
        <line id="線_340" data-name="線 340" x1="16" transform="translate(0 16)" fill="none" stroke="#4991bf" stroke-linecap="round" stroke-miterlimit="10" stroke-width="4"/>
      </g>
      <g id="グループ_2784" data-name="グループ 2784" transform="translate(48 49)">
        <line id="線_333" data-name="線 333" x2="15.835" transform="translate(0.165)" fill="none" stroke="#4991bf" stroke-linecap="round" stroke-miterlimit="10" stroke-width="4"/>
        <line id="線_334" data-name="線 334" y1="16" fill="none" stroke="#4991bf" stroke-linecap="round" stroke-miterlimit="10" stroke-width="4"/>
      </g>
    </g>
    <g id="グループ_2783" data-name="グループ 2783" transform="translate(18 14)">
      <g id="長方形_1076" data-name="長方形 1076" transform="translate(622 365)" fill="#fff" stroke="#4991bf" stroke-width="3">
        <rect width="76" height="32" rx="6" stroke="none"/>
        <rect x="1.5" y="1.5" width="73" height="29" rx="4.5" fill="none"/>
      </g>
      <g id="グループ_2782" data-name="グループ 2782" transform="translate(-1)">
        <g id="楕円形_270" data-name="楕円形 270" transform="translate(632 372)" fill="#fff" stroke="#ea4335" stroke-width="2">
          <circle cx="6.5" cy="6.5" r="6.5" stroke="none"/>
          <circle cx="6.5" cy="6.5" r="5.5" fill="none"/>
        </g>
        <line id="線_341" data-name="線 341" x1="9" transform="translate(634 388)" fill="none" stroke="#ea4335" stroke-linecap="round" stroke-width="2"/>
        <line id="線_342" data-name="線 342" y2="6" transform="translate(638.5 385)" fill="none" stroke="#ea4335" stroke-linecap="round" stroke-width="2"/>
      </g>
      <g id="グループ_2781" data-name="グループ 2781" transform="translate(-1)">
        <g id="楕円形_271" data-name="楕円形 271" transform="translate(647 378)" fill="#fff" stroke="#007bff" stroke-width="2">
          <circle cx="6.5" cy="6.5" r="6.5" stroke="none"/>
          <circle cx="6.5" cy="6.5" r="5.5" fill="none"/>
        </g>
        <line id="線_343" data-name="線 343" y2="7" transform="translate(653.5 372)" fill="none" stroke="#007bff" stroke-linecap="round" stroke-width="2"/>
        <line id="線_344" data-name="線 344" x1="4" y2="3.5" transform="translate(649.5 372)" fill="none" stroke="#007bff" stroke-linecap="round" stroke-width="2"/>
        <line id="線_345" data-name="線 345" x2="4" y2="3.5" transform="translate(653.5 372)" fill="none" stroke="#007bff" stroke-linecap="round" stroke-width="2"/>
      </g>
      <text id="_18" data-name="18" transform="translate(665 388)" fill="#4991bf" font-size="20" font-family="Roboto-Bold, Roboto" font-weight="700"><tspan x="0" y="0">18</tspan></text>
    </g>
  </g>
</svg>
