<svg id="camera_flower" data-name="camera flower" xmlns="http://www.w3.org/2000/svg" width="24" height="24" viewBox="0 0 24 24">
  <path id="パス_48" data-name="パス 48" d="M8.23,3.46l1.91,3L12,3.41l1.9,2.85,1.91-2.85a.86.86,0,0,0,.07.1,7.42,7.42,0,0,1,1.21,3,6.84,6.84,0,0,1,.1,1.75,5.75,5.75,0,0,1-.67,2.4,4.72,4.72,0,0,1-2.9,2.4,4.59,4.59,0,0,1-.82.17h-.06v5l7.13-7h0c0,.9.05,1.81.06,2.71v1.68a5.15,5.15,0,0,1-.21,1.51A4.32,4.32,0,0,1,19,18.62a5.28,5.28,0,0,1-3,1.82,6,6,0,0,1-1.26.14H11.2V13.1h-.27A4.33,4.33,0,0,1,9,12.51a4.48,4.48,0,0,1-1.86-2.06A5.82,5.82,0,0,1,6.7,8.81a6.74,6.74,0,0,1,0-1.49A7.43,7.43,0,0,1,7.85,4,6.577,6.577,0,0,0,8.23,3.46Z" fill="#ccc"/>
  <path id="パス_49" data-name="パス 49" d="M9.88,20.59h-.3a5,5,0,0,1-1-.07,5.33,5.33,0,0,1-3.83-2.25,4.21,4.21,0,0,1-.72-1.86,10,10,0,0,1,0-1.55V11.23h0l5.72,5.59a.19.19,0,0,1,0,.08v3.69Z" fill="#ccc"/>
  <rect id="長方形_606" data-name="長方形 606" width="24" height="24" fill="none"/>
</svg>
