<svg xmlns="http://www.w3.org/2000/svg" width="731.248" height="499.34" viewBox="0 0 731.248 499.34">
  <g id="グループ化_2977" data-name="グループ化 2977" transform="translate(-1079.092 -515.66)">
    <circle id="楕円形_197" data-name="楕円形 197" cx="96" cy="96" r="96" transform="translate(1532 667)" fill="#4991bf" opacity="0.523"/>
    <circle id="楕円形_198" data-name="楕円形 198" cx="47.5" cy="47.5" r="47.5" transform="translate(1688 876)" fill="#4991bf"/>
    <circle id="楕円形_201" data-name="楕円形 201" cx="47.5" cy="47.5" r="47.5" transform="translate(1369 829)" fill="#4991bf" opacity="0.393"/>
    <circle id="楕円形_200" data-name="楕円形 200" cx="31.5" cy="31.5" r="31.5" transform="translate(1692 571)" fill="#4991bf" opacity="0.488"/>
    <circle id="楕円形_199" data-name="楕円形 199" cx="33" cy="33" r="33" transform="translate(1532 919)" fill="#3f98d1"/>
    <circle id="楕円形_203" data-name="楕円形 203" cx="33" cy="33" r="33" transform="translate(1104 833)" fill="#3f98d1" opacity="0.404"/>
    <circle id="楕円形_202" data-name="楕円形 202" cx="77" cy="77" r="77" transform="translate(1184 861)" fill="#3f98d1" opacity="0.198"/>
    <path id="パス_616" data-name="パス 616" d="M4511.013,1498.5l-29.757,51.353" transform="translate(-2802.688 -868.799)" fill="none" stroke="#fff" stroke-width="4" opacity="0.146"/>
    <path id="パス_617" data-name="パス 617" d="M4481.256,1498.5l25.325,40.509" transform="translate(-2799.982 -653.082)" fill="none" stroke="#fff" stroke-width="4" opacity="0.365"/>
    <path id="パス_618" data-name="パス 618" d="M4572.305,1498.5l-91.049,18.629" transform="translate(-2883.256 -565.129)" fill="none" stroke="#fff" stroke-width="4" opacity="0.33"/>
    <path id="パス_619" data-name="パス 619" d="M4481.256,1498.5l79.36,37.31" transform="translate(-3026.871 -593.531)" fill="none" stroke="#fff" stroke-width="4" opacity="0.301"/>
    <path id="パス_620" data-name="パス 620" d="M4481.255,1503.323,4521.84,1488" transform="translate(-3151.34 -599.551)" fill="none" stroke="#fff" stroke-width="4" opacity="0.1"/>
  </g>
</svg>
