<svg xmlns="http://www.w3.org/2000/svg" xmlns:xlink="http://www.w3.org/1999/xlink" width="150" height="150" viewBox="0 0 150 150">
  <defs>
    <clipPath id="clip-path">
      <path id="パス_1162" data-name="パス 1162" d="M238.943,415.832l56-133.013,49.718,48.8L318.6,400.633Z" transform="translate(-238.943 -282.819)" fill="none"/>
    </clipPath>
  </defs>
  <g id="グループ_3125" data-name="グループ 3125" transform="translate(-207.617 -273.28)" opacity="0.501">
    <path id="パス_1159" data-name="パス 1159" d="M232.476,343.621" transform="translate(20.576 58.292)" fill="#8e454f"/>
    <ellipse id="楕円形_325" data-name="楕円形 325" cx="74.069" cy="75" rx="74.069" ry="75" transform="translate(207.616 273.28)" fill="#90c3df"/>
    <text id="_REST_API_" data-name="
REST API
" transform="translate(283.017 379.862)" fill="#fff" font-size="14" font-family="Arial-BoldMT, Arial" font-weight="700"><tspan x="0" y="0"></tspan><tspan x="-32.023" y="17">REST API</tspan><tspan x="0" y="34"></tspan></text>
    <g id="グループ_3121" data-name="グループ 3121" transform="translate(229.16 303.576)">
      <path id="パス_1160" data-name="パス 1160" d="M218.644,337.043c1.279-10.569,10.265-18.638,20.284-18.183.678.032.874-.309,1.09-.879a20.461,20.461,0,0,1,4.231-6.875,18.9,18.9,0,0,1,16.8-6.176c.622.078,1.07.084,1.475-.624,6.268-10.945,18.262-15.966,29.952-12.583,11.562,3.345,19.631,14.673,19.437,27.344a1.242,1.242,0,0,0,.878,1.379,19.863,19.863,0,0,1,11.033,11.537c.648,1.682,1.009,3.486,1.522,5.305v5.646a46.821,46.821,0,0,1-2.241,6.479c-3.828,7.537-9.877,11.44-18.048,11.485-7.357.04-14.713.01-22.07.006-15.012,0-30.026.092-45.036-.058-7.659-.076-13.373-4.016-17.054-11.011a48.507,48.507,0,0,1-2.462-6.819" transform="translate(-218.43 -290.681)" fill="#fff"/>
    </g>
    <g id="グループ_3124" data-name="グループ 3124" transform="translate(251.896 286.212)">
      <g id="グループ_3123" data-name="グループ 3123" clip-path="url(#clip-path)">
        <g id="グループ_3122" data-name="グループ 3122" transform="translate(-45.933 16.044)">
          <path id="パス_1161" data-name="パス 1161" d="M351.525,344.208c-.849,2.071-1.478,4.512-2.79,6.637-4.765,7.72-12.3,11.718-22.468,11.765-9.158.041-18.317.01-27.475.006-18.689,0-37.379.094-56.066-.059-9.535-.078-16.649-4.114-21.23-11.28-1.451-2.269-2.17-4.892-3.066-6.986v-5.608a3.369,3.369,0,0,0,.266-.51c1.592-10.827,12.779-19.092,25.252-18.627a1.215,1.215,0,0,0,1.357-.9,20.772,20.772,0,0,1,5.267-7.043c5.786-5.016,12.761-7.149,20.91-6.327.775.08,1.332.086,1.836-.639,7.8-11.212,22.735-16.355,37.287-12.89,14.394,3.427,24.439,15.031,24.2,28.01-.016.8.3,1.131,1.093,1.412,6.458,2.294,11.111,6.206,13.735,11.818a53.911,53.911,0,0,1,1.894,5.435Z" transform="translate(-218.43 -290.681)" fill="#c8c9ca"/>
        </g>
      </g>
    </g>
    <text id="_" data-name="{        }" transform="translate(279.543 356.758)" fill="#21ae84" font-size="28" font-family="Helvetica"><tspan x="-40.469" y="0" xml:space="preserve">{        }</tspan></text>
    <text id="REST" transform="translate(280.595 357.353)" fill="#1596ba" font-size="22" font-family="Helvetica"><tspan x="-29.337" y="0">REST</tspan></text>
  </g>
</svg>
