<svg xmlns="http://www.w3.org/2000/svg" width="275" height="142" viewBox="0 0 275 142">
  <g id="グループ_3093" data-name="グループ 3093" transform="translate(0 13)">
    <text id="O_ps_" data-name="O  ps!" transform="translate(0 100)" fill="#4991bf" font-size="108" font-family="Roboto-Bold, Roboto" font-weight="700"><tspan x="0" y="0" xml:space="preserve">O  ps!</tspan></text>
    <path id="frown-open-solid" d="M27.153,8A27.153,27.153,0,1,0,54.307,35.153,27.149,27.149,0,0,0,27.153,8ZM14.891,29.9a3.5,3.5,0,1,1,3.5,3.5A3.5,3.5,0,0,1,14.891,29.9ZM35.4,49.967a33.09,33.09,0,0,0-8.245-1.675,33.09,33.09,0,0,0-8.245,1.675,1.757,1.757,0,0,1-2.245-1.982c.766-4.38,6.58-6.7,10.489-6.7s9.723,2.332,10.489,6.7A1.756,1.756,0,0,1,35.4,49.967ZM35.913,33.4a3.5,3.5,0,1,1,3.5-3.5A3.5,3.5,0,0,1,35.913,33.4Z" transform="translate(73.599 36.631)" fill="#4991bf"/>
  </g>
</svg>
