<svg xmlns="http://www.w3.org/2000/svg" xmlns:xlink="http://www.w3.org/1999/xlink" width="149.998" height="150" viewBox="0 0 149.998 150">
  <defs>
    <clipPath id="clip-path">
      <path id="パス_1176" data-name="パス 1176" d="M630.164,288.442,608.2,350.51l51.237,2.3,16.664-6.465-7.32-57.9Z" transform="translate(-608.205 -288.442)" fill="none"/>
    </clipPath>
  </defs>
  <g id="グループ_3139" data-name="グループ 3139" transform="translate(-576.211 -273.762)" opacity="0.501">
    <ellipse id="楕円形_330" data-name="楕円形 330" cx="74.999" cy="75" rx="74.999" ry="75" transform="translate(576.21 273.762)" fill="#008fbe" opacity="0.5"/>
    <text id="_JSON_FORMAT" data-name="
JSON 
FORMAT" transform="translate(649.318 375.296)" fill="#fff" font-size="13" font-family="Arial-BoldMT, Arial" font-weight="700"><tspan x="0" y="0"></tspan><tspan x="-19.506" y="15">JSON </tspan><tspan x="-27.317" y="30">FORMAT</tspan></text>
    <rect id="長方形_1148" data-name="長方形 1148" width="8.566" height="6.463" transform="translate(647.178 361.158)" fill="#51585b"/>
    <ellipse id="楕円形_331" data-name="楕円形 331" cx="1.772" cy="1.772" rx="1.772" ry="1.772" transform="translate(649.438 358.697)" fill="#51585b"/>
    <rect id="長方形_1149" data-name="長方形 1149" width="81.853" height="2.803" rx="0.755" transform="translate(610.283 367.067)" fill="#51585b"/>
    <rect id="長方形_1150" data-name="長方形 1150" width="81.853" height="62.068" rx="8.965" transform="translate(610.283 300.898)" fill="#aec5cb"/>
    <g id="グループ_3138" data-name="グループ 3138" transform="translate(635.335 300.895)">
      <g id="グループ_3137" data-name="グループ 3137" clip-path="url(#clip-path)">
        <rect id="長方形_1151" data-name="長方形 1151" width="82.229" height="62.068" rx="8.965" transform="translate(-25.323)" fill="#5e8993"/>
      </g>
    </g>
    <rect id="長方形_1152" data-name="長方形 1152" width="65.236" height="46.803" rx="6.934" transform="translate(618.591 307.143)" fill="#51585b"/>
    <text id="_:_" data-name="{:}" transform="translate(649.773 332.431)" fill="#fff" font-size="24" font-family="Helvetica"><tspan x="-11.35" y="0">{:}</tspan></text>
    <ellipse id="楕円形_332" data-name="楕円形 332" cx="2.111" cy="2.111" rx="2.111" ry="2.111" transform="translate(649.437 356.251)" fill="#fff"/>
  </g>
</svg>
