<svg xmlns="http://www.w3.org/2000/svg" xmlns:xlink="http://www.w3.org/1999/xlink" width="150" height="150" viewBox="0 0 150 150">
  <defs>
    <clipPath id="clip-path">
      <path id="パス_1157" data-name="パス 1157" d="M170.491,349.392H116.346l18.88-49.126h35.266Z" transform="translate(-116.346 -300.266)" fill="none"/>
    </clipPath>
  </defs>
  <g id="グループ_3120" data-name="グループ 3120" transform="translate(-81.715 -273.762)" opacity="0.501">
    <g id="グループ_3119" data-name="グループ 3119" transform="translate(81.715 273.762)">
      <path id="パス_1177" data-name="パス 1177" d="M75,0A75,75,0,1,1,0,75,75,75,0,0,1,75,0Z" fill="#71b9d0" opacity="0.5"/>
      <path id="パス_1154" data-name="パス 1154" d="M110.516,311.577a22.186,22.186,0,1,1,44.373,0" transform="translate(-58.731 -260.803)" fill="#a4a4a4" stroke="#040000" stroke-miterlimit="10" stroke-width="0.264"/>
      <path id="パス_1155" data-name="パス 1155" d="M114.387,307.729a14.468,14.468,0,0,1,28.937,0" transform="translate(-54.897 -257.424)" fill="#90c3df"/>
      <rect id="長方形_1142" data-name="長方形 1142" width="60.94" height="49.489" rx="2.865" transform="translate(44.517 47.418)" fill="#b49c16" stroke="#6c5d27" stroke-miterlimit="10" stroke-width="0.264"/>
      <rect id="長方形_1143" data-name="長方形 1143" width="57.016" height="46.134" rx="2.676" transform="translate(44.733 47.576)" fill="#f3dd24"/>
      <path id="パス_1156" data-name="パス 1156" d="M106.926,318.89h57.016v2.948H106.926" transform="translate(-62.193 -235.44)" fill="#6cb82f" stroke="#168f3b" stroke-miterlimit="10" stroke-width="0.264"/>
      <text id="HTTPS" transform="translate(70.882 124.226)" fill="#fff" font-size="13" font-family="Arial-BoldMT, Arial" font-weight="700"><tspan x="-21.306" y="0">HTTPS</tspan></text>
      <g id="グループ_3117" data-name="グループ 3117" transform="translate(61.649 47.436)">
        <g id="グループ_3116" data-name="グループ 3116" clip-path="url(#clip-path)">
          <rect id="長方形_1144" data-name="長方形 1144" width="60.713" height="49.126" rx="2.849" transform="translate(-18.646)" fill="#78692a" opacity="0.52"/>
        </g>
      </g>
      <g id="グループ_3118" data-name="グループ 3118" transform="translate(65.785 56.614)">
        <circle id="楕円形_324" data-name="楕円形 324" cx="5.716" cy="5.716" r="5.716" transform="translate(1.438)" fill="#2f302f" stroke="#fff" stroke-miterlimit="10" stroke-width="0.264"/>
        <path id="パス_1158" data-name="パス 1158" d="M128.674,309.65l3.628,12.12H117.516l3.216-12.12" transform="translate(-117.516 -299.796)" fill="#2f302f" stroke="#fff" stroke-miterlimit="10" stroke-width="0.264"/>
      </g>
    </g>
  </g>
</svg>
