<svg xmlns="http://www.w3.org/2000/svg" width="676" height="446" viewBox="0 0 676 446">
  <g id="グループ_3140" data-name="グループ 3140" transform="translate(-181 -320)">
    <text id="_5" data-name="5" transform="translate(181.001 674)" fill="#4991bf" font-size="338" font-family="Roboto-Bold, Roboto" font-weight="700"><tspan x="0" y="0">5</tspan></text>
    <text id="_0" data-name="0" transform="translate(663.001 674)" fill="#4991bf" font-size="338" font-family="Roboto-Bold, Roboto" font-weight="700"><tspan x="0" y="0">0</tspan></text>
    <path id="tools-solid" d="M156.551,123.644l-36.592-36.59a23.2,23.2,0,0,0-26.686-4.343L59.962,49.4V30l-40-30-20,20,30,40H49.369L82.68,93.3a23.25,23.25,0,0,0,4.344,26.685l36.592,36.59a11.618,11.618,0,0,0,16.468,0l16.468-16.467a11.674,11.674,0,0,0,0-16.467ZM103.616,70.306a32.878,32.878,0,0,1,23.4,9.687l6.062,6.062a44.232,44.232,0,0,0,13.687-9.218,44.936,44.936,0,0,0,11.843-42.715,3.74,3.74,0,0,0-6.281-1.719L129.083,55.651,107.866,52.12,104.335,30.9,127.584,7.656A3.772,3.772,0,0,0,125.8,1.344,45.015,45.015,0,0,0,83.117,13.186,44.28,44.28,0,0,0,70.243,45.558L95.9,71.212A34.042,34.042,0,0,1,103.616,70.306ZM71.149,95.928,53.431,78.211,5.809,125.863a20,20,0,0,0,28.28,28.278L72.712,115.52a33.554,33.554,0,0,1-1.562-19.592ZM19.965,147.486a7.5,7.5,0,1,1,7.5-7.5A7.521,7.521,0,0,1,19.965,147.486Z" transform="translate(439.05 464)" fill="#3d3935"/>
    <g id="グループ_3109" data-name="グループ 3109" transform="translate(411 648)">
      <circle id="楕円形_317" data-name="楕円形 317" cx="2.516" cy="2.516" r="2.516" transform="translate(144.877 0.065)" fill="#008fbe"/>
      <g id="グループ_3104" data-name="グループ 3104">
        <g id="グループ_3095" data-name="グループ 3095" transform="translate(174.466 12.164)">
          <path id="パス_1138" data-name="パス 1138" d="M597.408,484.356H583.2c.018.052.028.089.043.124a4.757,4.757,0,0,0,8.154,1.268.165.165,0,0,1,.173-.067l2.392.377,2.255.351.583.092a9.827,9.827,0,1,1,.6-2.145Zm-13.819-3.839h8.165C588.695,476.4,584.964,478.434,583.589,480.517Z" transform="translate(-577.835 -472.947)" fill="#008fbe"/>
        </g>
        <g id="グループ_3096" data-name="グループ 3096" transform="translate(0 0.169)">
          <path id="パス_1139" data-name="パス 1139" d="M314.661,487.731h-.2c-1.7,0-3.4,0-5.1,0a.249.249,0,0,1-.268-.186c-.572-1.325-1.154-2.646-1.732-3.968q-1.6-3.657-3.19-7.314-1.884-4.319-3.77-8.636c-.051-.116-.085-.241-.141-.355a1.089,1.089,0,0,0-2.014.023c-.911,2.088-1.812,4.181-2.721,6.269-.62,1.426-1.246,2.847-1.867,4.271q-2.123,4.865-4.242,9.733a.215.215,0,0,1-.221.162c-1.732-.005-3.464,0-5.2,0-.041,0-.082-.006-.143-.01.085-.2.164-.384.246-.57q1.919-4.394,3.837-8.788,1.3-2.987,2.607-5.975l3.284-7.525,2.355-5.4c.3-.679.57-1.371.9-2.032a2.305,2.305,0,0,1,2.283-1.4,2.418,2.418,0,0,1,2.177,1.615l3.68,8.439,3.908,8.955,3.968,9.091q.756,1.733,1.512,3.467C314.626,487.633,314.636,487.664,314.661,487.731Z" transform="translate(-283.858 -456.034)" fill="#3d3935"/>
        </g>
        <g id="グループ_3097" data-name="グループ 3097" transform="translate(55.462)">
          <path id="パス_1140" data-name="パス 1140" d="M396.97,487.609h-5.059v-1.182a9.2,9.2,0,0,1-8,.669,9.617,9.617,0,0,1-4.839-4,11.043,11.043,0,0,1,.4-12.322,9.532,9.532,0,0,1,5.742-3.794,9.165,9.165,0,0,1,6.683,1.062V455.747h5.066v.164c0,6.868,0,13.459,0,20.327,0,.475.019.95.018,1.425q-.006,3.484-.019,6.969c0,.989,0,1.842,0,2.831Zm-5.053-10.375a4.73,4.73,0,1,0-4.721,5.043A4.891,4.891,0,0,0,391.917,477.234Z" transform="translate(-377.393 -455.747)" fill="#3d3935"/>
        </g>
        <g id="グループ_3098" data-name="グループ 3098" transform="translate(152.357 0.104)">
          <path id="パス_1141" data-name="パス 1141" d="M560.311,487.682H555.27V486.5a9.17,9.17,0,0,1-7.968.666,9.579,9.579,0,0,1-4.822-3.985,11.009,11.009,0,0,1,.4-12.282,9.5,9.5,0,0,1,5.722-3.782,9.129,9.129,0,0,1,6.66,1.058V455.924h5.048v.164c0,6.846,0,13.415,0,20.261,0,.474.019.947.018,1.421q-.007,3.474-.019,6.947c0,.986,0,1.836,0,2.821Zm-5.036-10.342a4.714,4.714,0,1,0-4.7,5.027A4.874,4.874,0,0,0,555.276,477.341Z" transform="translate(-540.802 -455.924)" fill="#008fbe"/>
        </g>
        <g id="グループ_3099" data-name="グループ 3099" transform="translate(111.662 0.168)">
          <path id="パス_1142" data-name="パス 1142" d="M472.093,456.037h.2c1.7,0,3.4,0,5.1,0a.25.25,0,0,1,.268.186c.572,1.325,1.154,2.645,1.731,3.968q1.6,3.657,3.19,7.315,1.884,4.318,3.77,8.635c.051.117.085.242.141.355a1.089,1.089,0,0,0,2.014-.023c.911-2.088,1.813-4.18,2.721-6.269.619-1.425,1.245-2.846,1.867-4.271q2.123-4.866,4.241-9.733a.215.215,0,0,1,.221-.162q2.6.007,5.2,0c.041,0,.083.006.144.01-.085.2-.165.385-.246.571q-1.918,4.393-3.837,8.787-1.3,2.987-2.607,5.975l-3.285,7.525q-1.177,2.7-2.355,5.4c-.3.679-.569,1.371-.9,2.031a2.3,2.3,0,0,1-2.283,1.4,2.42,2.42,0,0,1-2.177-1.615q-1.839-4.22-3.68-8.439l-3.908-8.956-3.968-9.091-1.512-3.468C472.128,456.134,472.118,456.1,472.093,456.037Z" transform="translate(-472.093 -456.033)" fill="#008fbe"/>
        </g>
        <rect id="長方形_1141" data-name="長方形 1141" width="5.071" height="19.659" transform="translate(144.857 12.211)" fill="#008fbe"/>
        <g id="グループ_3100" data-name="グループ 3100" transform="translate(196.358 12.341)">
          <circle id="楕円形_318" data-name="楕円形 318" cx="9.821" cy="9.821" r="9.821" fill="#008fbe"/>
          <circle id="楕円形_319" data-name="楕円形 319" cx="4.721" cy="4.721" r="4.721" transform="translate(5.1 5.1)" fill="#fff"/>
        </g>
        <g id="グループ_3101" data-name="グループ 3101" transform="translate(89.619 12.341)">
          <circle id="楕円形_320" data-name="楕円形 320" cx="9.821" cy="9.821" r="9.821" fill="#3d3935"/>
          <circle id="楕円形_321" data-name="楕円形 321" cx="4.721" cy="4.721" r="4.721" transform="translate(5.1 5.1)" fill="#fff"/>
        </g>
        <path id="パス_1143" data-name="パス 1143" d="M530.742,497.078" transform="translate(-384.44 -470.702)" fill="#3d3935" stroke="#000" stroke-miterlimit="10" stroke-width="0.25" stroke-dasharray="3"/>
        <path id="パス_1144" data-name="パス 1144" d="M529.788,494.345" transform="translate(-384.052 -470.07)" fill="#3d3935" stroke="#000" stroke-miterlimit="10" stroke-width="0.25" stroke-dasharray="3"/>
        <g id="グループ_3102" data-name="グループ 3102" transform="translate(33.378 12.324)">
          <path id="パス_1145" data-name="パス 1145" d="M345.23,492.895h-5.067c0-.031-.008-.058-.008-.085,0-3.276-.021-6.552.008-9.828a9.568,9.568,0,0,1,3.231-7.225,9.352,9.352,0,0,1,4.984-2.405,9.828,9.828,0,0,1,11.283,8.01,9.847,9.847,0,0,1,.146,1.736q0,4.839,0,9.678v.114H354.74c0-.029,0-.063,0-.1,0-3.226-.018-6.452.006-9.678a4.759,4.759,0,0,0-9.395-1.124,4.312,4.312,0,0,0-.118,1.113c.008.275,0,.549,0,.824v8.967Z" transform="translate(-340.148 -473.219)" fill="#3d3935"/>
        </g>
        <g id="グループ_3103" data-name="グループ 3103" transform="translate(77.398 12.152)">
          <path id="パス_1146" data-name="パス 1146" d="M424.241,472.927V478c-.392.064-.783.1-1.16.195a4.719,4.719,0,0,0-3.552,4.127c-.038.4-.012.8-.012,1.2q0,4.45,0,8.9v.227h-5.075c0-.068-.01-.142-.01-.217,0-3.152-.011-6.305,0-9.458a9.767,9.767,0,0,1,3.171-7.4,9.509,9.509,0,0,1,5.567-2.555C423.52,472.975,423.869,472.956,424.241,472.927Z" transform="translate(-414.428 -472.927)" fill="#3d3935"/>
        </g>
        <path id="パス_1147" data-name="パス 1147" d="M304.747,493.474v-7.888l8.451,3.944Z" transform="translate(-292.445 -465.761)" fill="#008fbe"/>
        <path id="パス_1148" data-name="パス 1148" d="M356.824,506.617" transform="translate(-313.585 -474.623)" fill="#3d3935"/>
        <path id="パス_1149" data-name="パス 1149" d="M530.742,497.313" transform="translate(-384.44 -470.799)" fill="#3d3935" stroke="#000" stroke-miterlimit="10" stroke-width="0.25" stroke-dasharray="3"/>
        <path id="パス_1150" data-name="パス 1150" d="M529.788,494.58" transform="translate(-384.052 -470.157)" fill="#3d3935" stroke="#000" stroke-miterlimit="10" stroke-width="0.25" stroke-dasharray="3"/>
        <path id="パス_1151" data-name="パス 1151" d="M304.747,493.474v-7.888l8.451,3.944Z" transform="translate(-292.445 -465.761)" fill="#008fbe"/>
        <path id="パス_1152" data-name="パス 1152" d="M530.742,497.313" transform="translate(-384.44 -470.799)" fill="#3d3935" stroke="#000" stroke-miterlimit="10" stroke-width="0.25" stroke-dasharray="3"/>
        <path id="パス_1153" data-name="パス 1153" d="M529.788,494.58" transform="translate(-384.052 -470.157)" fill="#3d3935" stroke="#000" stroke-miterlimit="10" stroke-width="0.25" stroke-dasharray="3"/>
      </g>
    </g>
  </g>
</svg>
