<svg xmlns="http://www.w3.org/2000/svg" xmlns:xlink="http://www.w3.org/1999/xlink" width="150" height="150" viewBox="0 0 150 150">
  <defs>
    <clipPath id="clip-path">
      <path id="パス_1166" data-name="パス 1166" d="M447.727,362.9l-76.251-2.216,24.037-66.313h52.215Z" transform="translate(-371.476 -294.373)" fill="none"/>
    </clipPath>
  </defs>
  <g id="グループ_3130" data-name="グループ 3130" transform="translate(-332.604 -273.762)" opacity="0.501">
    <path id="パス_1163" data-name="パス 1163" d="M391.872,280" transform="translate(50.486 5.316)" fill="none" stroke="#f4aa14" stroke-miterlimit="10" stroke-width="3.163"/>
    <g id="グループ_3129" data-name="グループ 3129" transform="translate(332.603 273.762)">
      <g id="グループ_3128" data-name="グループ 3128">
        <path id="パス_1168" data-name="パス 1168" d="M75,0A75,75,0,1,1,0,75,75,75,0,0,1,75,0Z" fill="#90c3df"/>
        <path id="パス_1164" data-name="パス 1164" d="M398.779,306.731c.4,10.567,3.353,21.481,5.927,22.8,2.6,1.333,5.688.739,5.942,1.865.3,1.344-3.8,3.531-6.873,4.661-3.026,1.111-9.7,1.887-17.209.419" transform="translate(-286.637 -245.677)" fill="#b85e1f"/>
        <path id="パス_1165" data-name="パス 1165" d="M359.352,306.374c-.394,10.568-3.352,21.483-5.927,22.8-2.6,1.331-5.688.737-5.94,1.865-.3,1.342,3.8,3.529,6.873,4.659,3.026,1.111,9.7,1.887,17.209.418" transform="translate(-319.94 -245.981)" fill="#b85e1f"/>
        <ellipse id="楕円形_327" data-name="楕円形 327" cx="36.764" cy="40.776" rx="36.764" ry="40.776" transform="translate(39.247 19.42)" fill="#b85e1f"/>
        <ellipse id="楕円形_328" data-name="楕円形 328" cx="31.922" cy="36.815" rx="31.922" ry="36.815" transform="translate(44.089 29.563)" fill="#f0cec6"/>
        <text id="_RECOGNITION" data-name="
RECOGNITION" transform="translate(76.446 111.02)" fill="#fff" font-size="12" font-family="Arial-BoldMT, Arial" font-weight="700"><tspan x="0" y="0"></tspan><tspan x="-42.334" y="14">RECOGNITION</tspan></text>
        <g id="グループ_3127" data-name="グループ 3127" transform="translate(71.991 38.171)" opacity="0.52">
          <g id="グループ_3126" data-name="グループ 3126" clip-path="url(#clip-path)">
            <ellipse id="楕円形_329" data-name="楕円形 329" cx="31.922" cy="36.815" rx="31.922" ry="36.815" transform="translate(-28.033 -8.189)" fill="#ef9381"/>
          </g>
        </g>
        <path id="パス_1167" data-name="パス 1167" d="M357.417,313.734h37.048l3.961-11.262,4.893,11.262H419.4l-12.349-21.281-25.165-5.931-18.641,10.3-5.825,15.9" transform="translate(-311.464 -262.892)" fill="#b85e1f"/>
        <text id="FACE" transform="translate(72.575 76.609)" fill="#51585b" font-size="12" font-family="Arial-BoldMT, Arial" font-weight="700"><tspan x="-16.002" y="0">FACE</tspan></text>
      </g>
    </g>
  </g>
</svg>
