<svg xmlns="http://www.w3.org/2000/svg" width="16" height="16" viewBox="0 0 16 16">
  <path id="expand-solid" d="M0,37.286V32.857A.855.855,0,0,1,.857,32H5.286a.43.43,0,0,1,.429.429v1.429a.43.43,0,0,1-.429.429h-3v3a.43.43,0,0,1-.429.429H.429A.43.43,0,0,1,0,37.286Zm10.286-4.857v1.429a.43.43,0,0,0,.429.429h3v3a.43.43,0,0,0,.429.429h1.429A.43.43,0,0,0,16,37.286V32.857A.855.855,0,0,0,15.143,32H10.714A.43.43,0,0,0,10.286,32.429Zm5.286,9.857H14.143a.43.43,0,0,0-.429.429v3h-3a.43.43,0,0,0-.429.429v1.429a.43.43,0,0,0,.429.429h4.429A.855.855,0,0,0,16,47.143V42.714A.43.43,0,0,0,15.571,42.286ZM5.714,47.571V46.143a.43.43,0,0,0-.429-.429h-3v-3a.43.43,0,0,0-.429-.429H.429A.43.43,0,0,0,0,42.714v4.429A.855.855,0,0,0,.857,48H5.286A.43.43,0,0,0,5.714,47.571Z" transform="translate(0 -32)" fill="#7d3f98"/>
</svg>
