<svg xmlns="http://www.w3.org/2000/svg" width="100" height="100" viewBox="0 0 100 100">
  <g id="グループ_2790" data-name="グループ 2790" transform="translate(-238 -382)">
    <rect id="長方形_1079" data-name="長方形 1079" width="100" height="100" transform="translate(238 382)" fill="none"/>
    <g id="グループ_2774" data-name="グループ 2774" transform="translate(200 336)">
      <g id="グループ_2768" data-name="グループ 2768" transform="translate(112 56)">
        <line id="線_333" data-name="線 333" x1="15.835" transform="translate(0)" fill="none" stroke="#4991bf" stroke-linecap="round" stroke-miterlimit="10" stroke-width="4"/>
        <line id="線_334" data-name="線 334" y1="16" transform="translate(16)" fill="none" stroke="#4991bf" stroke-linecap="round" stroke-miterlimit="10" stroke-width="4"/>
      </g>
      <g id="グループ_2769" data-name="グループ 2769" transform="translate(48 56)">
        <line id="線_335" data-name="線 335" y2="15.835" transform="translate(0 0.165)" fill="none" stroke="#4991bf" stroke-linecap="round" stroke-miterlimit="10" stroke-width="4"/>
        <line id="線_336" data-name="線 336" x1="16" transform="translate(0)" fill="none" stroke="#4991bf" stroke-linecap="round" stroke-miterlimit="10" stroke-width="4"/>
      </g>
      <g id="グループ_2771" data-name="グループ 2771" transform="translate(112 97)">
        <line id="線_337" data-name="線 337" x1="15.835" transform="translate(0 16)" fill="none" stroke="#4991bf" stroke-linecap="round" stroke-miterlimit="10" stroke-width="4"/>
        <line id="線_338" data-name="線 338" y2="16" transform="translate(16)" fill="none" stroke="#4991bf" stroke-linecap="round" stroke-miterlimit="10" stroke-width="4"/>
      </g>
      <g id="グループ_2772" data-name="グループ 2772" transform="translate(48 97)">
        <line id="線_339" data-name="線 339" y1="15.835" transform="translate(0)" fill="none" stroke="#4991bf" stroke-linecap="round" stroke-miterlimit="10" stroke-width="4"/>
        <line id="線_340" data-name="線 340" x1="16" transform="translate(0 16)" fill="none" stroke="#4991bf" stroke-linecap="round" stroke-miterlimit="10" stroke-width="4"/>
      </g>
    </g>
    <g id="face_recognition_107922" transform="translate(173.241 324.623)">
      <path id="パス_1114" data-name="パス 1114" d="M203.477,205.55H139.633a8.481,8.481,0,0,1,3.025-6.769c3.635-3.386,7.529-6.428,12.355-8a41.975,41.975,0,0,0,5.653-2.541c3-1.5,3.5-5.421,1.317-8.153-6.432-8.058-9.159-17.167-6.294-27.525,2.06-7.451,10.367-11.318,15.588-10.988a31.61,31.61,0,0,1,5.731.822c6.283,1.585,11.084,7.722,11.755,14.636.863,8.913-2.227,16.465-7.51,23.318a9.633,9.633,0,0,0-1.631,2.712c-.709,2.153.753,4.417,3.014,5.385,3.8,1.627,7.592,3.285,11.285,5.142a22.664,22.664,0,0,1,8.4,7.191A5.4,5.4,0,0,1,203.477,205.55Z" transform="translate(-56.864 -58.174)" fill="#fff" stroke="#4991bf" stroke-width="4"/>
    </g>
  </g>
</svg>
