<svg xmlns="http://www.w3.org/2000/svg" width="100" height="100" viewBox="0 0 100 100"><defs><style>.a,.b{fill:none;}.b,.c{stroke:#0049ad;stroke-width:4px;}.b{stroke-linecap:round;stroke-miterlimit:10;}.c{fill:#fff;}</style></defs><g transform="translate(-238 -382)"><rect class="a" width="100" height="100" transform="translate(238 382)"/><g transform="translate(200 336)"><g transform="translate(112 56)"><line class="b" x1="15.835" transform="translate(0)"/><line class="b" y1="16" transform="translate(16)"/></g><g transform="translate(48 56)"><line class="b" y2="15.835" transform="translate(0 0.165)"/><line class="b" x1="16" transform="translate(0)"/></g><g transform="translate(112 97)"><line class="b" x1="15.835" transform="translate(0 16)"/><line class="b" y2="16" transform="translate(16)"/></g><g transform="translate(48 97)"><line class="b" y1="15.835" transform="translate(0)"/><line class="b" x1="16" transform="translate(0 16)"/></g></g><g transform="translate(256 408)"><path class="c" d="M64,63.928c0-4.4-6.181-10.3-9.57-12.005-3.688-1.8-7.477-3.5-11.265-5.1-2.193-1-3.688-3.2-2.991-5.4a7.453,7.453,0,0,1,1.6-2.7c5.283-6.8,8.374-14.406,7.477-23.31C48.548,8.5,43.763,2.4,37.483.8A19.181,19.181,0,0,0,26.517.8c-6.28,1.6-11.065,7.7-11.763,14.606-.9,8.9,2.193,16.407,7.477,23.31a9.2,9.2,0,0,1,1.6,2.7c.7,2.2-.7,4.4-2.991,5.4-3.788,1.6-7.576,3.2-11.265,5.1C6.181,53.623,0,59.526,0,63.928.274,64.091,64,63.928,64,63.928Z"/></g></g></svg>