<svg xmlns="http://www.w3.org/2000/svg" width="100" height="100" viewBox="0 0 100 100"><defs><style>.a,.b{fill:none;}.a{stroke:#0049ad;stroke-linecap:round;stroke-miterlimit:10;stroke-width:4px;}.c{fill:#0049ad;}.d{fill:#fff;}</style></defs><g transform="translate(-974 -387)"><g transform="translate(936 352)"><g transform="translate(112 56)"><line class="a" x1="15.835" transform="translate(0)"/><line class="a" y1="16" transform="translate(16)"/></g><g transform="translate(48 56)"><line class="a" y2="15.835" transform="translate(0 0.165)"/><line class="a" x1="16" transform="translate(0)"/></g><g transform="translate(112 97)"><line class="a" x1="15.835" transform="translate(0 16)"/><line class="a" y2="16" transform="translate(16)"/></g><g transform="translate(48 97)"><line class="a" y1="15.835" transform="translate(0)"/><line class="a" x1="16" transform="translate(0 16)"/></g></g><rect class="b" width="100" height="100" transform="translate(974 387)"/><g transform="translate(984 397)"><rect class="b" width="80" height="79.998"/><path class="c" d="M156.853,51.4v.988c0,6.815.013,13.63-.008,20.444a7.094,7.094,0,0,1-5.5,6.965,6.8,6.8,0,0,1-5.158-.733,1,1,0,0,0-1.157-.025,7.109,7.109,0,0,1-10.676-6.256c-.036-6.786-.01-13.575-.01-20.363V51.45a6.58,6.58,0,0,1-7.414-6.833c.308-4.955.545-9.925,1.106-14.853.683-6,4.014-10.033,9.767-11.958.128-.042.249-.1.473-.19A10.394,10.394,0,0,1,135.7,8.043a9.946,9.946,0,0,1,3.79-5.89,10.258,10.258,0,0,1,13.128.492,10.142,10.142,0,0,1,3.45,7.373,10.554,10.554,0,0,1-2.85,7.623c.463.162.847.277,1.217.428a13.436,13.436,0,0,1,8.859,11.381c.539,4.357.7,8.761,1,13.146a15.375,15.375,0,0,1,.043,3.242,6.323,6.323,0,0,1-6.673,5.57C157.43,51.4,157.192,51.4,156.853,51.4Zm-4.079-23.9.221-.1a5.876,5.876,0,0,1,.922,1.25,8.655,8.655,0,0,1,.638,2.415c.373,4.652.683,9.31,1.011,13.965.1,1.422,1.252,2.757,2.324,2.568a2.655,2.655,0,0,0,2.494-2.962c-.3-4.495-.6-8.988-.93-13.481-.284-3.888-1.878-7-5.46-8.8a7.669,7.669,0,0,0-3.067-.9c-3.318-.1-6.642-.02-9.963-.007a4.658,4.658,0,0,0-.967.04,9.344,9.344,0,0,0-7.421,6.511,20.4,20.4,0,0,0-.743,4.553c-.337,4.11-.6,8.228-.856,12.345a2.656,2.656,0,0,0,2.487,2.727c.98.092,2.1-1.012,2.295-2.263a2.365,2.365,0,0,0,.022-.243c.119-2.087.217-4.175.361-6.258.192-2.788.39-5.576.647-8.358a4.282,4.282,0,0,1,1.631-3.122v1.065q0,13.52,0,27.041,0,8.512,0,17.023a3.2,3.2,0,0,0,1.932,3.195,3.093,3.093,0,0,0,4.259-3.13q.012-11.445,0-22.888v-.995h1.961v1.153q0,10.262,0,20.524c0,.923-.028,1.848.036,2.768a3,3,0,0,0,2.958,2.783c1.96.04,3.2-1.372,3.2-3.657q0-21.992,0-43.982C152.775,28.014,152.775,27.755,152.775,27.5ZM139.488,10.386A6.27,6.27,0,1,0,145.776,4.1,6.287,6.287,0,0,0,139.488,10.386Z" transform="translate(-105.917 -0.013)"/><path class="d" d="M18025.656,2398.93a3.25,3.25,0,0,1-1.219-.245,3.186,3.186,0,0,1-1.93-3.2c0-2.844,0-5.748,0-8.556v-2.791q0-1.418,0-2.837v-9.6q0-3.38,0-6.76,0-6.76,0-13.521v-1.064a4.306,4.306,0,0,0-1.631,3.121c-.26,2.794-.453,5.55-.643,8.362-.1,1.4-.176,2.828-.252,4.21l-.006.139c-.033.634-.07,1.276-.105,1.907a2.113,2.113,0,0,1-.021.244,2.641,2.641,0,0,1-2.18,2.27c-.037,0-.076,0-.113-.005a2.651,2.651,0,0,1-2.49-2.727c.209-3.428.494-7.93.855-12.348a20.747,20.747,0,0,1,.742-4.552,9.331,9.331,0,0,1,7.42-6.509,2.3,2.3,0,0,1,.514-.048c.076,0,.154,0,.23,0s.15,0,.225,0c.883,0,1.781-.012,2.65-.021h.113c1.162-.012,2.363-.024,3.545-.024,1.367,0,2.563.017,3.652.051a7.492,7.492,0,0,1,3.066.906,9.378,9.378,0,0,1,3.967,3.617,11.76,11.76,0,0,1,1.5,5.184c.268,3.684.52,7.4.777,11.2l.152,2.281a2.645,2.645,0,0,1-2.492,2.958,1.21,1.21,0,0,1-.207.018c-.994,0-2.023-1.254-2.121-2.582q-.094-1.329-.186-2.657c-.242-3.49-.516-7.445-.824-11.307a8.826,8.826,0,0,0-.635-2.419,3.248,3.248,0,0,0-.586-.844l-.01-.012c-.111-.127-.227-.259-.328-.4l-.111.05-.066.03-.045.02c0,.307,0,.553.006.774v43.982a4.04,4.04,0,0,1-.846,2.674,2.9,2.9,0,0,1-2.279.982h-.082a3,3,0,0,1-2.959-2.781c-.047-.682-.043-1.379-.039-2.053V2394c0-.216,0-.431,0-.647V2371.67h-1.961v3.54q0,1.271,0,2.543c0,5.833,0,11.866-.008,17.8A3.15,3.15,0,0,1,18025.656,2398.93Zm4.2-59.221h-.033a6.232,6.232,0,0,1-4.434-1.864,6.323,6.323,0,0,1,4.469-10.76h.023a6.151,6.151,0,0,1,4.383,1.822,6.334,6.334,0,0,1-4.408,10.8Z" transform="translate(-17990 -2323)"/></g></g></svg>