<svg xmlns="http://www.w3.org/2000/svg" width="40" height="40" viewBox="0 0 40 40"><defs><style>.a{fill:#fff;stroke:#cfcfcf;}.b{fill:#0049ad;}.c{stroke:none;}.d{fill:none;}</style></defs><g transform="translate(-770 -296)"><g transform="translate(-48)"><g class="a" transform="translate(818 296)"><circle class="c" cx="20" cy="20" r="20"/><circle class="d" cx="20" cy="20" r="19.5"/></g></g></g><path class="b" d="M20.5,37.466H1.366A1.366,1.366,0,0,1,0,36.1V33.366A1.366,1.366,0,0,1,1.366,32H20.5a1.366,1.366,0,0,1,1.366,1.366V36.1A1.366,1.366,0,0,1,20.5,37.466Zm-2.05-3.758a1.025,1.025,0,1,0,1.025,1.025A1.025,1.025,0,0,0,18.447,33.708Zm-2.733,0a1.025,1.025,0,1,0,1.025,1.025A1.025,1.025,0,0,0,15.714,33.708ZM20.5,44.3H1.366A1.366,1.366,0,0,1,0,42.931V40.2a1.366,1.366,0,0,1,1.366-1.366H20.5A1.366,1.366,0,0,1,21.863,40.2v2.733A1.366,1.366,0,0,1,20.5,44.3Zm-2.05-3.758a1.025,1.025,0,1,0,1.025,1.025A1.025,1.025,0,0,0,18.447,40.54Zm-2.733,0a1.025,1.025,0,1,0,1.025,1.025A1.025,1.025,0,0,0,15.714,40.54ZM20.5,51.13H1.366A1.366,1.366,0,0,1,0,49.764V47.031a1.366,1.366,0,0,1,1.366-1.366H20.5a1.366,1.366,0,0,1,1.366,1.366v2.733A1.366,1.366,0,0,1,20.5,51.13Zm-2.05-3.758A1.025,1.025,0,1,0,19.472,48.4,1.025,1.025,0,0,0,18.447,47.372Zm-2.733,0A1.025,1.025,0,1,0,16.739,48.4,1.025,1.025,0,0,0,15.714,47.372Z" transform="translate(9 -21.867)"/></svg>