<svg width="232" height="64" viewBox="0 0 232 64" fill="none" xmlns="http://www.w3.org/2000/svg">
<path d="M12.1024 41.8172C12.0795 41.7061 12.0689 41.5909 12.0506 41.4782C11.9462 40.8752 11.8917 40.2645 11.8878 39.6525C11.8878 39.6295 11.8912 39.6065 11.8915 39.5835C11.8915 39.5752 11.8903 39.5674 11.8903 39.5591C11.8903 36.5819 12.9591 34.0067 15.0966 31.8336C17.2341 29.6604 19.7653 28.574 22.6901 28.5743C24.7301 28.5567 26.7351 29.1061 28.4831 30.1616V17.9226L28.2559 17.6946C27.5587 16.9991 26.6155 16.6087 25.6323 16.6087C24.6492 16.6087 23.706 16.9991 23.0087 17.6946L8.08225 32.6718C7.38908 33.3714 7 34.3178 7 35.3043C7 36.2908 7.38908 37.2373 8.08225 37.9369L12.1515 42.0199C12.1338 41.953 12.1159 41.886 12.1024 41.8172Z" fill="#4D86BF"/>
<path d="M28.6545 39.6525C28.6545 38.5084 28.3163 37.39 27.6829 36.4387C27.0494 35.4875 26.149 34.746 25.0956 34.3082C24.0422 33.8704 22.883 33.7558 21.7647 33.979C20.6464 34.2021 19.6192 34.7531 18.8129 35.562C18.0066 36.371 17.4575 37.4017 17.2351 38.5238C17.0126 39.6459 17.1267 40.809 17.563 41.866C17.9994 42.9231 18.7382 43.8265 19.6863 44.4622C20.6343 45.0978 21.7489 45.4371 22.8891 45.4372C23.6462 45.4372 24.3959 45.2876 25.0954 44.9969C25.7949 44.7062 26.4305 44.2801 26.9658 43.743C27.5012 43.2058 27.9259 42.5681 28.2156 41.8663C28.5053 41.1644 28.6545 40.4122 28.6545 39.6525V39.6525Z" fill="#4D86BF"/>
<path d="M32.9053 44.1998C32.7053 44.641 32.4766 45.0684 32.2205 45.4793L32.1998 45.5131C32.0921 45.6852 31.982 45.855 31.8651 46.0206C31.7709 46.1559 31.6705 46.287 31.5694 46.4176C30.2988 48.0677 28.5869 49.3212 26.6334 50.0322C24.6798 50.7431 22.5651 50.8822 20.5358 50.4331L23.0084 52.9141C23.7056 53.6096 24.6488 54 25.632 54C26.6151 54 27.5583 53.6096 28.2556 52.9141L34.9228 46.2242L32.9053 44.1998Z" fill="#4D86BF"/>
<path d="M43.1825 32.6718L33.8911 23.3482V37.2159L38.896 42.2382L43.1832 37.9364C43.8763 37.2368 44.2652 36.2904 44.2651 35.304C44.2649 34.3175 43.8758 33.3713 43.1825 32.6718Z" fill="#4D86BF"/>
<path d="M133.934 54H139.009L151.402 22.6848H146.767L133.934 54Z" fill="#2E2E2E"/>
<path d="M121.124 22.6848H126.199L138.592 54H133.958L121.124 22.6848Z" fill="#2E2E2E"/>
<path d="M203.689 22.6848C195.392 22.6848 188.667 29.6513 188.667 38.2448V54H193.465V38.2448C193.465 32.437 198.043 27.7287 203.69 27.7287C209.337 27.7287 213.915 32.437 213.915 38.2448C213.915 38.2415 213.915 38.2436 213.915 38.2448V54H218.712V38.2448C218.712 29.6513 211.986 22.6848 203.689 22.6848Z" fill="#2E2E2E"/>
<path d="M193.325 22.6848H188.667V54H193.325V22.6848Z" fill="#2E2E2E"/>
<path d="M116.466 11H111.808V54H116.466V11Z" fill="#2E2E2E"/>
<path d="M101.327 23.6196C92.9658 23.6196 86.188 30.4205 86.188 38.8098C86.188 47.199 92.966 54 101.327 54C109.688 54 116.466 47.199 116.466 38.8098C116.466 30.4205 109.689 23.6196 101.327 23.6196ZM101.327 49.0762C95.6361 49.0762 91.0227 44.4798 91.0227 38.8098C91.0227 33.1398 95.6361 28.5436 101.327 28.5436C107.018 28.5436 111.631 33.14 111.631 38.8098C111.631 44.4796 107.019 49.0762 101.327 49.0762Z" fill="#2E2E2E"/>
<path d="M62.9053 44.4185L72.2137 38.8016L62.8975 33.2011L62.9053 44.4185Z" fill="#4D86BF"/>
<path d="M66.3911 23.6196C58.03 23.6196 51.2522 30.4205 51.2522 38.8098C51.2522 47.199 58.0302 54 66.3911 54C74.752 54 81.53 47.199 81.53 38.8098C81.53 30.4205 74.7531 23.6196 66.3911 23.6196ZM66.3911 49.0762C60.7004 49.0762 56.0869 44.4798 56.0869 38.8098C56.0869 33.1398 60.7004 28.5436 66.3911 28.5436C72.0818 28.5436 76.6953 33.14 76.6953 38.8098C76.6953 44.4796 72.0828 49.0762 66.3911 49.0762Z" fill="#2E2E2E"/>
<path d="M81.5299 22.6848H76.8718V54H81.5299V22.6848Z" fill="#2E2E2E"/>
<path d="M168.87 23.6196C160.508 23.6196 153.731 30.4205 153.731 38.8098C153.731 47.199 160.509 54 168.87 54C177.23 54 184.008 47.199 184.008 38.8098C184.008 30.4205 177.232 23.6196 168.87 23.6196ZM168.87 49.0762C163.179 49.0762 158.565 44.4798 158.565 38.8098C158.565 33.1398 163.179 28.5436 168.87 28.5436C174.56 28.5436 179.174 33.14 179.174 38.8098C179.174 44.4796 174.561 49.0762 168.87 49.0762Z" fill="#2E2E2E"/>
<path d="M184.008 22.6848H179.35V54H184.008V22.6848Z" fill="#2E2E2E"/>
</svg>
