<svg xmlns="http://www.w3.org/2000/svg" width="40" height="40" viewBox="0 0 40 40"><defs><style>.a{fill:#fff;stroke:#cfcfcf;}.b,.c{fill:#0049ad;}.c{fill-rule:evenodd;}.d{stroke:none;}.e{fill:none;}</style></defs><g transform="translate(-770 -296)"><g transform="translate(-48)"><g class="a" transform="translate(818 296)"><circle class="d" cx="20" cy="20" r="20"/><circle class="e" cx="20" cy="20" r="19.5"/></g></g></g><g transform="translate(-395.194 -360.371)"><path class="b" d="M415.659,366.689A14.145,14.145,0,1,0,429.8,380.835,14.145,14.145,0,0,0,415.659,366.689Zm0,26.9a12.754,12.754,0,1,1,12.754-12.754A12.754,12.754,0,0,1,415.659,393.588Z" transform="translate(-0.464 -0.464)"/><g transform="translate(406.081 373.083)"><path class="b" d="M424.92,377.3a1.523,1.523,0,1,1-.921-1.946A1.523,1.523,0,0,1,424.92,377.3Z" transform="translate(-410.635 -375.261)"/><path class="c" d="M419.431,381.139l.767,2.243,3.913-.723-.3-1.136-2.84.5-.838-3.088-1.359-.66-3.245-1.716-2.856,2.616.846.744,2.215-1.971,1.042,1.206-2.589,2.669-2.645,2.959-2.836-1.789-.9,1.027,4.31,2.782,2.881-2.584,2.1,2.619-2.874,2.942,1.069,1.1,3.977-3.943-2.3-3.067Z" transform="translate(-407.803 -375.521)"/></g><path class="b" d="M419.064,369.472a.522.522,0,0,1-.522-.522v-4.058a.522.522,0,0,1,1.043,0v4.058A.522.522,0,0,1,419.064,369.472Z" transform="translate(-3.87)"/><path class="b" d="M419.064,403.1a.522.522,0,0,1-.522-.522v-4.058a.522.522,0,0,1,1.043,0v4.058A.522.522,0,0,1,419.064,403.1Z" transform="translate(-3.87 -6.725)"/><g transform="translate(406.424 388.371)"><path class="b" d="M415.785,397.791a1.217,1.217,0,0,1,2.434,0v.4a11.853,11.853,0,0,0,7.553-3.818h-17.54a11.851,11.851,0,0,0,7.553,3.818Z" transform="translate(-408.232 -394.371)"/><path class="b" d="M419.585,398.516a.522.522,0,0,0-1.043,0v.436c.174.008.346.028.522.028s.347-.02.521-.028Z" transform="translate(-410.294 -395.096)"/></g><path class="b" d="M437.4,384.762H433.34a.522.522,0,0,1,0-1.044H437.4a.522.522,0,0,1,0,1.044Z" transform="translate(-6.725 -3.869)"/><path class="b" d="M403.774,384.762h-4.058a.522.522,0,0,1,0-1.044h4.058a.522.522,0,0,1,0,1.044Z" transform="translate(0 -3.869)"/></g></svg>