<svg xmlns="http://www.w3.org/2000/svg" width="40" height="40" viewBox="0 0 40 40"><defs><style>.a,.b{fill:#fff;stroke:#cfcfcf;}.b{stroke-miterlimit:10;}.c{fill:#0049ad;}.d{stroke:none;}.e{fill:none;}</style></defs><g transform="translate(-770 -296)"><g transform="translate(-48)"><g class="a" transform="translate(818 296)"><circle class="d" cx="20" cy="20" r="20"/><circle class="e" cx="20" cy="20" r="19.5"/></g></g><path class="b" d="M20,20" transform="translate(770.452 295.5)"/></g><g transform="translate(-428.865 -389.932)"><path class="c" d="M448.8,422.842a12.956,12.956,0,0,1-10.312-20.762,13.028,13.028,0,0,1,10.308-5.148h0a12.917,12.917,0,0,1,10.377,5.253,1.5,1.5,0,0,1-2.418,1.775,9.91,9.91,0,0,0-7.956-4.028h0a10.006,10.006,0,0,0-7.917,3.956,9.954,9.954,0,0,0,15.888,12,1.5,1.5,0,0,1,2.394,1.808,12.877,12.877,0,0,1-8.548,5.024A13.268,13.268,0,0,1,448.8,422.842Z"/><path class="c" d="M458.7,413.432v-2h-8.5a1.5,1.5,0,0,1,0-3h8.5v-2a.5.5,0,0,1,.8-.4l4.667,3.5a.5.5,0,0,1,.1.7.526.526,0,0,1-.1.1l-4.667,3.5a.5.5,0,0,1-.8-.4Z"/></g></svg>