<svg xmlns="http://www.w3.org/2000/svg" width="44.94" height="64.14" viewBox="0 0 44.94 64.14"><defs><style>.a{fill:#cfcfcf;}.b{fill:#aeaeae;stroke:#212121;}.c{fill:#eee;}.d{fill:#707070;}.e{fill:#212121;}</style></defs><g transform="translate(0.14 0.14)"><path class="a" d="M20.8,8V20.8H8V69.867H50.667V8Zm0,0" transform="translate(-6.933 -6.933)"/><path class="b" d="M20.8,8,8,20.8H20.8Zm0,0" transform="translate(-6.933 -6.933)"/><path class="c" d="M8,240v30.933H35.733C20.4,270.933,8,257.1,8,240Zm0,0" transform="translate(-6.933 -208)"/><path class="d" d="M13.425,0,0,13.425V64H44.8V0ZM12.8,3.642V12.8H3.642ZM42.667,61.867H2.133V14.933h12.8V2.133H42.667Zm0,0"/><path class="e" d="M77.6,190.055l-3.017,3.018-3.017-3.018-1.508,1.508,3.017,3.018L70.063,197.6l1.508,1.508,3.017-3.018,3.017,3.018,1.508-1.508L76.1,194.581l3.017-3.018Zm0,0" transform="translate(-60.721 -164.714)"/><path class="e" d="M191.571,199.107l3.017-3.018,3.017,3.018,1.508-1.508-3.017-3.018,3.017-3.018-1.508-1.508-3.017,3.018-3.017-3.018-1.508,1.508,3.017,3.018-3.017,3.018Zm0,0" transform="translate(-164.721 -164.714)"/><path class="e" d="M98.344,301.6l1.508,1.508.991-.991a9.613,9.613,0,0,1,13.576,0l.991.991,1.508-1.508-.991-.991a11.746,11.746,0,0,0-16.593,0Zm0,0" transform="translate(-85.231 -257.555)"/></g></svg>