<svg width="24" height="24" viewBox="0 0 24 24" fill="none" xmlns="http://www.w3.org/2000/svg">
<path d="M18.7914 15.15V13.35H10.9788C10.6131 13.35 10.2626 13.2077 10.004 12.9545C9.74546 12.7014 9.6001 12.3581 9.6001 12C9.6001 11.642 9.74546 11.2987 10.004 11.0456C10.2626 10.7924 10.6131 10.6501 10.9788 10.6501H18.7914V8.85007C18.7914 8.7665 18.8152 8.68473 18.8601 8.61364C18.9049 8.54255 18.9691 8.4849 19.0454 8.44753C19.1218 8.41016 19.2072 8.39432 19.2923 8.40183C19.3773 8.40933 19.4585 8.44001 19.5267 8.49016L23.8163 11.6401C23.8734 11.682 23.9197 11.7363 23.9516 11.7988C23.9835 11.8613 24.0001 11.9302 24.0001 12C24.0001 12.0699 23.9835 12.1388 23.9516 12.2013C23.9197 12.2638 23.8734 12.318 23.8163 12.3599L19.5267 15.5099C19.4472 15.5683 19.3504 15.6 19.251 15.6C19.1906 15.6 19.1308 15.5883 19.075 15.5657C19.0193 15.5431 18.9687 15.51 18.926 15.4682C18.8834 15.4264 18.8495 15.3769 18.8264 15.3223C18.8033 15.2677 18.7914 15.2091 18.7914 15.15Z" fill="#4D86BF"/>
<path d="M20.6011 5.97745C21.2797 5.50228 21.451 4.55928 20.895 3.94521C19.5419 2.45095 17.8281 1.31532 15.9068 0.653778C13.5107 -0.171261 10.915 -0.216571 8.49154 0.524342C6.06812 1.26526 3.94147 2.75435 2.41638 4.77822C0.891285 6.80208 0.0460553 9.2568 0.00182771 11.7906C-0.0423999 14.3243 0.716645 16.8071 2.17017 18.8829C3.6237 20.9588 5.69709 22.5212 8.09318 23.3462C10.4893 24.1713 13.085 24.2166 15.5085 23.4757C17.4516 22.8816 19.204 21.8064 20.6085 20.3603C21.1856 19.766 21.0473 18.8176 20.3857 18.3191V18.3191C19.7241 17.8205 18.791 17.964 18.1895 18.5337C17.1845 19.4858 15.9681 20.198 14.6313 20.6067C12.8138 21.1624 10.867 21.1284 9.06988 20.5097C7.27282 19.8909 5.71778 18.7191 4.62763 17.1622C3.53748 15.6053 2.9682 13.7433 3.00137 11.8429C3.03454 9.9426 3.66846 8.10156 4.81228 6.58366C5.9561 5.06577 7.55109 3.94894 9.36866 3.39326C11.1862 2.83757 13.1331 2.87155 14.9301 3.49033C16.2518 3.94543 17.4426 4.69968 18.4138 5.68626C18.995 6.27663 19.9225 6.45262 20.6011 5.97745V5.97745Z" fill="#4D86BF"/>
</svg>
