<svg xmlns="http://www.w3.org/2000/svg" width="234" height="60" viewBox="0 0 234 60"><defs><style>.a{fill:none;}.b{fill:#0d0d0d;}.c{fill:#0049ad;}.d{fill:#5f6062;}.e{fill:#4d4e50;}</style></defs><g transform="translate(-16 -8)"><rect class="a" width="234" height="60" transform="translate(16 8)"/><g transform="translate(16 14)"><path class="b" d="M187.07,256.74l7.162,48H181.454l-.668-8.632h-4.46l-.744,8.632H162.67l6.391-48Zm-6.629,30.87q-.919-8.161-1.872-20.176-1.858,13.795-2.366,20.176Z" transform="translate(-162.67 -256.74)"/><path class="c" d="M252.772,256.74l-6.383,48H227.438l-7.186-48h13.161q2.279,19.854,3.266,33.574,1.012-13.878,2.079-24.645l.837-8.929Z" transform="translate(-192.197 -256.74)"/><g transform="translate(68.928 11.273)"><path class="d" d="M311.041,293.634q0,7.82,6.564,7.818a10.786,10.786,0,0,0,2.232-.221,22.359,22.359,0,0,0,2.562-.737,19.857,19.857,0,0,1,1.623,5.459q-1.069.406-1.992.664a15.349,15.349,0,0,1-1.769.387c-.567.085-1.126.148-1.678.184s-1.125.055-1.716.055a13.936,13.936,0,0,1-5.512-1.014,11.005,11.005,0,0,1-3.984-2.82,11.973,11.973,0,0,1-2.416-4.315,17.625,17.625,0,0,1-.811-5.459,17.072,17.072,0,0,1,.848-5.477,12.757,12.757,0,0,1,2.452-4.37,11.046,11.046,0,0,1,3.966-2.878,13.218,13.218,0,0,1,5.347-1.032,20.792,20.792,0,0,1,3.356.259,17.185,17.185,0,0,1,3.541,1.031,10.811,10.811,0,0,1-.552,2.932,22.134,22.134,0,0,1-1,2.489q-.738-.257-1.347-.442c-.4-.123-.793-.221-1.161-.3s-.738-.128-1.106-.166a11.668,11.668,0,0,0-1.18-.056,5.639,5.639,0,0,0-4.629,2.01Q311.041,289.653,311.041,293.634Z" transform="translate(-304.144 -279.878)"/><path class="d" d="M360.352,293.672a20.9,20.9,0,0,1,.682-5.477,12.331,12.331,0,0,1,2.1-4.371,9.838,9.838,0,0,1,3.613-2.895,11.959,11.959,0,0,1,5.219-1.051,11.835,11.835,0,0,1,5.2,1.051,9.888,9.888,0,0,1,3.6,2.895,12.355,12.355,0,0,1,2.1,4.371,20.964,20.964,0,0,1,.683,5.477,20.545,20.545,0,0,1-.683,5.44,12.175,12.175,0,0,1-2.1,4.315,9.647,9.647,0,0,1-3.6,2.84,12.236,12.236,0,0,1-5.2,1.014,12.365,12.365,0,0,1-5.219-1.014,9.6,9.6,0,0,1-3.613-2.84,12.151,12.151,0,0,1-2.1-4.315A20.48,20.48,0,0,1,360.352,293.672Zm16.338,0q0-8.042-4.684-8.041-4.795,0-4.795,8.041a12.12,12.12,0,0,0,1.162,5.994,3.885,3.885,0,0,0,3.6,1.972Q376.691,301.638,376.69,293.672Z" transform="translate(-332.967 -279.878)"/><path class="d" d="M434.874,290.647q1.55.628,2.784,1.272a8.376,8.376,0,0,1,2.12,1.55,6.166,6.166,0,0,1,1.365,2.175,9.75,9.75,0,0,1-.2,6.6,7.321,7.321,0,0,1-2.01,2.692,9.3,9.3,0,0,1-3.264,1.733,14.866,14.866,0,0,1-4.443.608,19.77,19.77,0,0,1-4.039-.369,25.217,25.217,0,0,1-3.781-1.144,21,21,0,0,1,.517-2.747q.369-1.457.885-2.968a15.208,15.208,0,0,0,5.9,1.475,6.208,6.208,0,0,0,2.932-.572,2.057,2.057,0,0,0,1.051-1.973,2.171,2.171,0,0,0-.223-1.015,2.217,2.217,0,0,0-.59-.718,3.658,3.658,0,0,0-.83-.5c-.306-.134-.62-.264-.939-.386l-2.067-.775a13.147,13.147,0,0,1-2.414-1.144,7.7,7.7,0,0,1-1.864-1.566,6.584,6.584,0,0,1-1.2-2.085,8.2,8.2,0,0,1-.424-2.765,8.569,8.569,0,0,1,.665-3.468A7.222,7.222,0,0,1,426.667,282a7.969,7.969,0,0,1,2.9-1.586,12.627,12.627,0,0,1,3.8-.534,17.6,17.6,0,0,1,3.633.369,29.94,29.94,0,0,1,3.744,1.069,18.733,18.733,0,0,1-.534,2.6,16.568,16.568,0,0,1-.976,2.674q-.96-.4-2.25-.848a10.036,10.036,0,0,0-3.209-.442,5.452,5.452,0,0,0-1.125.111,3.284,3.284,0,0,0-.958.349,1.859,1.859,0,0,0-.683.665,1.988,1.988,0,0,0-.258,1.051,1.841,1.841,0,0,0,.7,1.586,6.953,6.953,0,0,0,1.66.886Z" transform="translate(-365.299 -279.878)"/><path class="d" d="M483.528,286.538h-6.159a14.283,14.283,0,0,1-.331-2.913,14.428,14.428,0,0,1,.331-2.84h18.847q.147.813.221,1.513a12.972,12.972,0,0,1,.073,1.327,17.421,17.421,0,0,1-.294,2.913h-6.159v20.655a20.086,20.086,0,0,1-3.246.331,19.674,19.674,0,0,1-3.282-.331Z" transform="translate(-392.802 -280.343)"/><path class="d" d="M533.228,307q-.85.147-1.55.223a13.258,13.258,0,0,1-1.365.073,14.973,14.973,0,0,1-1.53-.093q-.866-.091-1.935-.276l8.26-26.333c.64-.075,1.236-.135,1.789-.185s1.113-.073,1.678-.073c.467,0,.978.025,1.531.073s1.186.11,1.9.185l8.151,26.371a24.017,24.017,0,0,1-3.688.331q-.738,0-1.475-.073T543.406,307l-1.4-5.126a16.184,16.184,0,0,1-1.972.442,11.841,11.841,0,0,1-1.862.148,12.02,12.02,0,0,1-1.734-.129,15.526,15.526,0,0,1-1.844-.388Zm5.163-19.472L535.92,297q.625.184,1.179.294a5.726,5.726,0,0,0,1.144.111,8.1,8.1,0,0,0,1.235-.093,10.781,10.781,0,0,0,1.274-.276Z" transform="translate(-418.344 -280.111)"/><path class="d" d="M591,280.395q1.807-.185,3.337-.351a30.125,30.125,0,0,1,3.228-.166,21.6,21.6,0,0,1,4.057.387,10.852,10.852,0,0,1,3.613,1.347,7.514,7.514,0,0,1,2.582,2.617,8.06,8.06,0,0,1,1,4.205,8.874,8.874,0,0,1-.314,2.453,8.414,8.414,0,0,1-.81,1.937,7.717,7.717,0,0,1-1.107,1.475,10.466,10.466,0,0,1-1.2,1.069l5.753,11.36q-.885.147-1.935.221t-1.9.073c-.493,0-1.064-.025-1.716-.073a14.666,14.666,0,0,1-1.715-.221l-5.237-12.06.331-.185a4.088,4.088,0,0,0,.978-.738,6.854,6.854,0,0,0,1-1.235,7.8,7.8,0,0,0,.773-1.605,5.444,5.444,0,0,0,.314-1.844,3.29,3.29,0,0,0-1.031-2.692,3.886,3.886,0,0,0-2.545-.848,4.372,4.372,0,0,0-.627.038,1.387,1.387,0,0,0-.333.073v21.1a19.931,19.931,0,0,1-3.209.331,19.7,19.7,0,0,1-3.282-.331Z" transform="translate(-451.24 -279.878)"/></g><g transform="translate(226.218 11.62)"><path class="e" d="M628.17,281.368h-1.156a2.173,2.173,0,0,1-.031-.358,2.766,2.766,0,0,1,.031-.389h3.09c.014.068.024.132.031.19a1.619,1.619,0,0,1,.01.189,1.663,1.663,0,0,1-.01.184,1.723,1.723,0,0,1-.031.184h-1.146v3.346q-.113.02-.2.031a1.854,1.854,0,0,1-.2.01,1.783,1.783,0,0,1-.189-.01,1.691,1.691,0,0,1-.19-.031Zm2.6-.747.225-.021c.068-.007.136-.01.2-.01s.128,0,.2.01l.23.021,1.013,2.241,1-2.241.21-.021a1.914,1.914,0,0,1,.2-.01c.068,0,.138,0,.21.01l.22.021.2,4.093c-.082.014-.152.024-.21.031a1.611,1.611,0,0,1-.189.01c-.055,0-.115,0-.179-.005a.974.974,0,0,1-.209-.036l-.153-2.609-.88,1.831a.911.911,0,0,1-.143.025c-.041,0-.089.005-.143.005a2.059,2.059,0,0,1-.3-.031l-.808-1.8-.133,2.578a1.835,1.835,0,0,1-.378.041,2.033,2.033,0,0,1-.4-.041Z" transform="translate(-626.983 -280.59)"/></g></g></g></svg>