<?xml version="1.0" encoding="UTF-8"?>
<svg width="235px" height="60px" viewBox="0 0 235 60" version="1.1" xmlns="http://www.w3.org/2000/svg" xmlns:xlink="http://www.w3.org/1999/xlink">
    <!-- Generator: Sketch 64 (93537) - https://sketch.com -->
    <title>icon-error-500</title>
    <desc>Created with Sketch.</desc>
    <g id="icon-error-500" stroke="none" stroke-width="1" fill="none" fill-rule="evenodd">
        <g id="Group-2">
            <rect id="Rectangle" x="0" y="0" width="235" height="60"></rect>
            <g id="logo-avc" transform="translate(5.000000, 14.000000)" fill-rule="nonzero">
                <path d="M32,32 L25.2310245,32 L16.8228951,11.6618503 C16.6848513,11.3288953 16.3610332,11.1119976 16.0019909,11.1119976 C15.6429485,11.1119976 15.3191304,11.3288953 15.1810867,11.6618503 L6.76897553,32 L0,32 L12.1695562,2.57008138 C12.8120407,1.01421053 14.3238798,0 16.0006636,0 C17.6774474,0 19.1892865,1.01421053 19.831771,2.57008138 L32,32 Z" id="Path" fill="#4D4D4D"></path>
                <polygon id="Path" fill="#4991BF" points="13 29 13 21 22 24.9993601"></polygon>
                <path d="M56,21 L56,32 L50.34338,32 L50.34338,21 C50.3433826,18.0479918 47.9525207,15.6538267 45.0007039,15.6499425 L45.0007039,15.6499425 C42.0461378,15.6499425 39.6509887,18.0452448 39.6509887,21 L39.6509887,32 L34,32 L34,21 C34,14.9248678 38.9245526,10 44.9992961,10 L44.9992961,10 C47.9167347,9.99962666 50.7148104,11.158387 52.777883,13.2213277 C54.8409557,15.2842683 56,18.0823747 56,21 L56,21 Z" id="Path" fill="#4D4D4D"></path>
                <path d="M92,10 L92,15.6551724 C89.3138594,15.6551724 87.1363123,18.0497086 87.1363123,21.0035186 L87.1363123,32 L82,32 L82,21.0035186 C81.9983041,18.0858514 83.0511226,15.2870451 84.9266701,13.2232825 C86.8022175,11.1595199 89.3467265,10 92,10 L92,10 Z" id="Path" fill="#4D4D4D"></path>
                <path d="M104.001529,10.0000001 C99.5523851,9.99944659 95.5410245,12.6791203 93.8380272,16.7894347 C92.1350298,20.899749 93.0757915,25.6312004 96.2216158,28.7774161 C99.3674401,31.9236318 104.098775,32.8649823 108.209301,31.1624964 C112.319827,29.4600105 115,25.4489835 115,20.9998393 C115,14.9253303 110.076038,10.000756 104.001529,10.0000001 Z M104.001529,27.1081237 C100.626505,27.1081237 97.8905075,24.3721261 97.8905075,20.997102 C97.8905075,17.6220779 100.626505,14.8860803 104.001529,14.8860803 C107.376554,14.8860803 110.112551,17.6220779 110.112551,20.997102 C110.112914,22.6180828 109.469237,24.1727968 108.323158,25.3191317 C107.17708,26.4654666 105.62251,27.1094924 104.001529,27.1094924 L104.001529,27.1081237 Z" id="Shape" fill="#4D4D4D"></path>
                <path d="M215,10 C208.924868,10 204,14.9248678 204,21 C204,27.0751322 208.924868,32 215,32 C221.075132,32 226,27.0751322 226,21 C226,18.0826186 224.841075,15.2847256 222.778175,13.2218254 C220.715274,11.1589252 217.917381,10 215,10 Z M215,27.1083738 C211.624927,27.1083738 208.888889,24.3723361 208.888889,20.9972627 C208.888889,17.6221892 211.624927,14.8861515 215,14.8861515 C218.375073,14.8861515 221.111111,17.6221892 221.111111,20.9972627 C221.111474,22.6182672 220.467787,24.1730039 219.321692,25.3193556 C218.175597,26.4657072 216.621005,27.1097424 215,27.1097424 L215,27.1083738 Z" id="Shape" fill="#4991BF"></path>
                <circle id="Oval" fill="#4991BF" cx="152.5" cy="3.5" r="3.5"></circle>
                <path d="M148,0 L141.231024,0 L132.822895,20.3381497 C132.684851,20.6711047 132.361033,20.8880024 132.001991,20.8880024 C131.642949,20.8880024 131.31913,20.6711047 131.181087,20.3381497 L122.768976,0 L116,0 L128.169556,29.4299186 C128.812041,30.9857895 130.32388,32 132.000664,32 C133.677447,32 135.189287,30.9857895 135.831771,29.4299186 L148,0 Z" id="Path" fill="#4991BF"></path>
                <path d="M74.500691,1 L74.500691,14.013634 C70.200011,11.0174718 64.2301079,11.6151952 60.6700462,15.3983968 C57.1099846,19.1815983 57.1099846,24.9279638 60.6700462,28.7111654 C64.2301079,32.494367 70.200011,33.0920903 74.500691,30.0959281 L74.500691,32 L80,32 L80,1 L74.500691,1 Z M68.3895874,27.3260104 C65.3524029,27.3260104 62.8902784,24.9689338 62.8902784,22.0613324 C62.8902784,19.1537311 65.3524029,16.7966545 68.3895874,16.7966545 C71.4267718,16.7966545 73.8888963,19.1537311 73.8888963,22.0613324 C73.8881408,24.9686341 71.4264588,27.3252871 68.3895874,27.3260104 Z" id="Shape" fill="#4D4D4D"></path>
                <path d="M173.499665,1 L173.499665,14.013634 C169.199252,11.0174718 163.22972,11.6151952 159.66988,15.3983968 C156.11004,19.1815983 156.11004,24.9279638 159.66988,28.7111654 C163.22972,32.494367 169.199252,33.0920903 173.499665,30.0959281 L173.499665,32 L179,32 L179,1 L173.499665,1 Z M167.388941,27.3260104 C164.352124,27.3252868 161.890839,24.9678899 161.891343,22.0604591 C161.891847,19.1530284 164.353948,16.7964135 167.390766,16.7966546 C170.427583,16.7968958 172.889276,19.1539017 172.889276,22.0613324 C172.888521,24.9691457 170.426158,27.3260104 167.388941,27.3260104 L167.388941,27.3260104 Z" id="Shape" fill="#4991BF"></path>
                <rect id="Rectangle" fill="#4991BF" x="149" y="10" width="6" height="22"></rect>
                <g id="Group" transform="translate(180.000000, 10.000000)" fill="#4991BF">
                    <path d="M11.7401235,21.9633333 C8.69190015,22.0953031 5.7045412,21.0824009 3.36518519,19.1237037 C1.20405939,17.2157911 0.0173652154,14.435864 0.134444444,11.5554321 L0.134444444,11.0122222 C0.0997106996,9.0373673 0.566985231,7.08602886 1.49246914,5.34111111 C2.37004514,3.70420609 3.71247743,2.36366388 5.35061728,1.48839506 C7.10388148,0.563014876 9.06262576,0.0958686126 11.0448148,0.13037037 C13.8277502,-0.0245150586 16.5541286,0.958294877 18.5981481,2.85320988 C20.7244822,4.86174766 21.9385421,7.65138752 21.9592593,10.5762963 C21.9674791,11.3440851 21.9166295,12.1113688 21.8071605,12.871358 C21.8071605,12.8618519 6.46148148,12.871358 6.46148148,12.871358 C6.62019269,14.1682218 7.27478133,15.3532949 8.28802469,16.1781481 C9.38657693,17.0359983 10.7533919,17.4771702 12.1461728,17.4234568 C14.2861017,17.5381305 16.3623297,16.6748673 17.7901235,15.0767901 L20.8579012,18.1703704 C19.8535212,19.414582 18.5432784,20.3766746 17.0554321,20.9624691 C15.3680479,21.6469154 13.5608822,21.9872018 11.7401235,21.9633333 L11.7401235,21.9633333 Z M11.0271605,4.66753086 C9.91001293,4.62093401 8.82187238,5.0302121 8.01234568,5.80148148 C7.17735542,6.69190583 6.65737644,7.83156619 6.53209877,9.04580247 L15.2234568,9.04580247 L15.2234568,8.59901235 C15.2633556,7.51849029 14.8572472,6.46909055 14.1003704,5.69691358 C13.2501324,4.96498605 12.1466648,4.59586323 11.0271605,4.66888889 L11.0271605,4.66753086 Z" id="Shape"></path>
                </g>
            </g>
        </g>
    </g>
</svg>