<svg xmlns="http://www.w3.org/2000/svg" width="74.128" height="66" viewBox="0 0 74.128 66"><defs><style>.a{fill:#cfcfcf;stroke:#707070;stroke-width:2px;}.b{fill:#212121;}</style></defs><g transform="translate(1.06 1)"><path class="a" d="M71.193,55,41.2,3a6,6,0,0,0-10.4,0L.813,55a6,6,0,0,0,5.2,9H66A6,6,0,0,0,71.193,55Z" transform="translate(0)"/><path class="b" d="M257.261,192h-5.58a2,2,0,0,0-1.99,2.2l1.6,16a2,2,0,0,0,1.99,1.8h2.375a2,2,0,0,0,1.99-1.8l1.6-16a2,2,0,0,0-1.985-2.2Zm-2.79,24a4,4,0,1,0,4,4A4,4,0,0,0,254.471,216Z" transform="translate(-218.468 -168)"/></g></svg>