<svg xmlns="http://www.w3.org/2000/svg" width="28.444" height="21.333" viewBox="0 0 28.444 21.333"><defs><style>.a{fill:#fff;}</style></defs><path class="a" d="M25.778,64H2.667A2.667,2.667,0,0,0,0,66.667v16a2.667,2.667,0,0,0,2.667,2.667H25.778a2.667,2.667,0,0,0,2.667-2.667v-16A2.667,2.667,0,0,0,25.778,64Zm-.333,18.667H3a.333.333,0,0,1-.333-.333V67A.333.333,0,0,1,3,66.667H25.444a.333.333,0,0,1,.333.333V82.333A.333.333,0,0,1,25.444,82.667ZM7.111,68.889a2.222,2.222,0,1,0,2.222,2.222A2.222,2.222,0,0,0,7.111,68.889ZM5.333,80H23.111V75.556l-4.862-4.862a.667.667,0,0,0-.943,0l-6.64,6.64-2.2-2.2a.667.667,0,0,0-.943,0l-2.2,2.2Z" transform="translate(0 -64)"/></svg>