<svg xmlns="http://www.w3.org/2000/svg" width="22" height="32" viewBox="0 0 22 32">
  <path id="lightbulb-regular" d="M11,5a6.006,6.006,0,0,0-6,6,1,1,0,0,0,2,0,4,4,0,0,1,4-4,1,1,0,0,0,0-2ZM6,28.7a.994.994,0,0,0,.168.553l1.532,2.3A1,1,0,0,0,8.536,32h4.928a1,1,0,0,0,.833-.446l1.532-2.3A1,1,0,0,0,16,28.7L16,26H6ZM11,0A10.994,10.994,0,0,0,2.723,18.237,17.886,17.886,0,0,1,6,24v0H9v-.007a2.957,2.957,0,0,0-.134-.879,19.708,19.708,0,0,0-3.886-6.855,8,8,0,1,1,12.043,0A19.752,19.752,0,0,0,13.141,23.1a2.969,2.969,0,0,0-.139.894V24h3v0a17.873,17.873,0,0,1,3.276-5.76A11,11,0,0,0,11,0Z" fill="#fff"/>
</svg>
