<svg xmlns="http://www.w3.org/2000/svg" width="32" height="32" viewBox="0 0 32 32">
  <path id="history-solid" d="M40,23.97A16,16,0,0,1,13.959,36.457a1.547,1.547,0,0,1-.119-2.3l.727-.727a1.551,1.551,0,0,1,2.057-.128,11.872,11.872,0,1,0-.758-17.955l3.274,3.274a1.032,1.032,0,0,1-.73,1.762H9.032A1.032,1.032,0,0,1,8,19.355V9.976a1.032,1.032,0,0,1,1.762-.73l3.185,3.185A16,16,0,0,1,40,23.97ZM28.328,29.053l.634-.815a1.548,1.548,0,0,0-.272-2.173l-2.626-2.042V17.29a1.548,1.548,0,0,0-1.548-1.548H23.484a1.548,1.548,0,0,0-1.548,1.548v8.752l4.22,3.282A1.548,1.548,0,0,0,28.328,29.053Z" transform="translate(-8 -8)" fill="#fff"/>
</svg>
