<svg xmlns="http://www.w3.org/2000/svg" width="30.476" height="24.381" viewBox="0 0 30.476 24.381"><defs><style>.a{fill:#fff;}</style></defs><path class="a" d="M30.476,12.571V11.81a.762.762,0,0,0-.762-.762H16.381v-1.9H19.81a1.524,1.524,0,0,0,1.524-1.524v-6.1A1.524,1.524,0,0,0,19.81,0H10.667A1.524,1.524,0,0,0,9.143,1.524v6.1a1.524,1.524,0,0,0,1.524,1.524H14.1v1.9H.762A.762.762,0,0,0,0,11.81v.762a.762.762,0,0,0,.762.762H5.714v1.9H3.048a1.524,1.524,0,0,0-1.524,1.524v6.1a1.524,1.524,0,0,0,1.524,1.524h7.619a1.524,1.524,0,0,0,1.524-1.524v-6.1a1.524,1.524,0,0,0-1.524-1.524H8v-1.9H22.476v1.9H19.81a1.524,1.524,0,0,0-1.524,1.524v6.1a1.524,1.524,0,0,0,1.524,1.524h7.619a1.524,1.524,0,0,0,1.524-1.524v-6.1a1.524,1.524,0,0,0-1.524-1.524H24.762v-1.9h4.952A.762.762,0,0,0,30.476,12.571ZM12.19,6.1V3.048h6.1V6.1ZM9.143,21.333H4.571V18.286H9.143Zm16.762,0H21.333V18.286H25.9Z"/></svg>