<svg xmlns="http://www.w3.org/2000/svg" width="40.006" height="32" viewBox="0 0 40.006 32">
  <path id="code-solid" d="M17.409,32.006,13.6,30.9a.751.751,0,0,1-.513-.931L21.616.579a.751.751,0,0,1,.931-.513L26.36,1.172a.751.751,0,0,1,.513.931L18.34,31.493A.749.749,0,0,1,17.409,32.006Zm-7.126-7.013L13,22.093a.75.75,0,0,0-.05-1.075L7.29,16.036l5.663-4.982A.745.745,0,0,0,13,9.979l-2.719-2.9a.751.751,0,0,0-1.063-.031L.214,15.486a.745.745,0,0,0,0,1.094l9.007,8.444a.745.745,0,0,0,1.063-.031Zm20.452.038,9.007-8.444a.745.745,0,0,0,0-1.094L30.735,7.042a.757.757,0,0,0-1.063.031l-2.719,2.9A.75.75,0,0,0,27,11.048l5.663,4.988L27,21.018a.745.745,0,0,0-.05,1.075l2.719,2.9a.751.751,0,0,0,1.063.038Z" transform="translate(0.025 -0.037)" fill="#fff"/>
</svg>
