<svg xmlns="http://www.w3.org/2000/svg" width="29.089" height="23.194" viewBox="0 0 29.089 23.194"><defs><style>.a{fill:#fff;}</style></defs><path class="a" d="M23.268,8.789l-.373.65a.562.562,0,0,1-.686.245,5.023,5.023,0,0,1-1.459-.845.565.565,0,0,1-.127-.714L21,7.475a3.924,3.924,0,0,1-.723-1.245h-.75a.561.561,0,0,1-.555-.468,5.121,5.121,0,0,1,0-1.686.565.565,0,0,1,.555-.473h.75A3.924,3.924,0,0,1,21,2.357l-.373-.65A.559.559,0,0,1,20.75.994,5.083,5.083,0,0,1,22.209.148.562.562,0,0,1,22.9.394l.373.65a4.039,4.039,0,0,1,1.441,0l.373-.65a.562.562,0,0,1,.686-.245,5.023,5.023,0,0,1,1.459.845.565.565,0,0,1,.127.714l-.373.65A3.924,3.924,0,0,1,27.7,3.6h.75a.561.561,0,0,1,.555.468,5.121,5.121,0,0,1,0,1.686.565.565,0,0,1-.555.473H27.7a3.924,3.924,0,0,1-.723,1.245l.373.65a.559.559,0,0,1-.127.714,5.083,5.083,0,0,1-1.459.845.562.562,0,0,1-.686-.245l-.373-.65A4.039,4.039,0,0,1,23.268,8.789Zm-.477-2.673a1.7,1.7,0,0,0,2.4-2.4A1.7,1.7,0,0,0,22.791,6.116Zm-5.241,7,1.532.764a1.093,1.093,0,0,1,.477,1.323,10.73,10.73,0,0,1-1.936,2.991,1.087,1.087,0,0,1-1.377.241l-1.323-.764a7.808,7.808,0,0,1-2.5,1.441v1.527a1.088,1.088,0,0,1-.9,1.073,10.222,10.222,0,0,1-3.45,0,1.092,1.092,0,0,1-.909-1.073V19.107a7.894,7.894,0,0,1-2.5-1.441l-1.323.759a1.088,1.088,0,0,1-1.377-.241A10.715,10.715,0,0,1,.059,15.2a1.1,1.1,0,0,1,.477-1.323l1.514-.764a7.874,7.874,0,0,1,0-2.882L.536,9.462A1.084,1.084,0,0,1,.059,8.144,10.672,10.672,0,0,1,1.977,5.153a1.087,1.087,0,0,1,1.377-.241l1.323.764a7.808,7.808,0,0,1,2.5-1.441V2.7a1.083,1.083,0,0,1,.891-1.068,10.366,10.366,0,0,1,3.455,0A1.092,1.092,0,0,1,12.427,2.7V4.23a7.894,7.894,0,0,1,2.5,1.441l1.323-.764a1.088,1.088,0,0,1,1.377.241,10.658,10.658,0,0,1,1.914,2.991,1.086,1.086,0,0,1-.455,1.323l-1.532.764A7.9,7.9,0,0,1,17.55,13.112Zm-5.345.959c2.691-3.5-1.3-7.5-4.8-4.8C4.709,12.766,8.7,16.762,12.2,14.071Zm11.064,8.3-.373.65a.562.562,0,0,1-.686.245,5.023,5.023,0,0,1-1.459-.845.565.565,0,0,1-.127-.714l.373-.65a3.924,3.924,0,0,1-.723-1.245h-.75a.561.561,0,0,1-.555-.468,5.121,5.121,0,0,1,0-1.686.565.565,0,0,1,.555-.473h.75A3.924,3.924,0,0,1,21,15.944l-.373-.65a.559.559,0,0,1,.127-.714,5.083,5.083,0,0,1,1.459-.845.562.562,0,0,1,.686.245l.373.65a4.039,4.039,0,0,1,1.441,0l.373-.65a.562.562,0,0,1,.686-.245,5.023,5.023,0,0,1,1.459.845.565.565,0,0,1,.127.714l-.373.65a3.924,3.924,0,0,1,.723,1.245h.75a.561.561,0,0,1,.555.468,5.121,5.121,0,0,1,0,1.686.565.565,0,0,1-.555.473H27.7a3.924,3.924,0,0,1-.723,1.245l.373.65a.559.559,0,0,1-.127.714,5.083,5.083,0,0,1-1.459.845.562.562,0,0,1-.686-.245l-.373-.65A4.039,4.039,0,0,1,23.268,22.375ZM22.791,19.7a1.7,1.7,0,0,0,2.4-2.4,1.7,1.7,0,0,0-2.4,2.4Z" transform="translate(0.009 -0.112)"/></svg>