<svg xmlns="http://www.w3.org/2000/svg" width="24" height="32" viewBox="0 0 24 32">
  <path id="clipboard-check-solid" d="M21,4H16A4,4,0,0,0,8,4H3A3,3,0,0,0,0,7V29a3,3,0,0,0,3,3H21a3,3,0,0,0,3-3V7A3,3,0,0,0,21,4ZM12,2.5A1.5,1.5,0,1,1,10.5,4,1.5,1.5,0,0,1,12,2.5Zm7.575,14.487L10.638,25.85a.751.751,0,0,1-1.062-.006L4.413,20.637a.751.751,0,0,1,.006-1.062l1.775-1.762a.751.751,0,0,1,1.063.006l2.875,2.9,6.625-6.575a.751.751,0,0,1,1.063.006l1.763,1.775A.751.751,0,0,1,19.575,16.987Z" fill="#fff"/>
</svg>
