<svg xmlns="http://www.w3.org/2000/svg" width="32" height="22.4" viewBox="0 0 32 22.4">
  <path id="user-friends-solid" d="M9.6,43.2A5.6,5.6,0,1,0,4,37.6,5.6,5.6,0,0,0,9.6,43.2Zm3.84,1.6h-.415a7.732,7.732,0,0,1-6.85,0H5.76A5.761,5.761,0,0,0,0,50.56V52a2.4,2.4,0,0,0,2.4,2.4H16.8A2.4,2.4,0,0,0,19.2,52V50.56A5.761,5.761,0,0,0,13.44,44.8ZM24,43.2a4.8,4.8,0,1,0-4.8-4.8A4.8,4.8,0,0,0,24,43.2Zm2.4,1.6h-.19a6.305,6.305,0,0,1-4.42,0H21.6a5.553,5.553,0,0,0-2.785.77A7.317,7.317,0,0,1,20.8,50.56v1.92c0,.11-.025.215-.03.32H29.6A2.4,2.4,0,0,0,32,50.4,5.6,5.6,0,0,0,26.4,44.8Z" transform="translate(0 -32)" fill="#fff"/>
</svg>
