<svg xmlns="http://www.w3.org/2000/svg" width="32" height="32" viewBox="0 0 32 32"><defs><style>.a{fill:none;}.b{fill:#fff;}</style></defs><rect class="a" width="32" height="32"/><g transform="translate(1.829 5.486)"><path class="b" d="M1994.551,1065.826a1.626,1.626,0,0,0,1.663-1.663v-17.656a1.668,1.668,0,0,0-1.685-1.708,2.513,2.513,0,0,0-1.775.882l-4.866,4.52a.336.336,0,0,1-.245.089h-3.17c-1.819,0-2.8,1.016-2.8,2.924v4.219c0,1.909.982,2.924,2.8,2.924h3.17a.32.32,0,0,1,.245.089l4.866,4.542A2.531,2.531,0,0,0,1994.551,1065.826Zm11.4-2.042a1.283,1.283,0,0,0,1.764-.391,14.843,14.843,0,0,0,0-16.183,1.273,1.273,0,0,0-1.764-.391,1.315,1.315,0,0,0-.279,1.931,12.32,12.32,0,0,1,0,13.1A1.315,1.315,0,0,0,2005.946,1063.783Zm-5.044-3.159a1.241,1.241,0,0,0,1.7-.324,8.886,8.886,0,0,0,0-10,1.231,1.231,0,0,0-1.7-.323,1.351,1.351,0,0,0-.268,2.009,6,6,0,0,1,.949,3.315,6.161,6.161,0,0,1-.949,3.326A1.338,1.338,0,0,0,2000.9,1060.625Z" transform="translate(-1981.671 -1044.799)"/></g></svg>