<svg xmlns="http://www.w3.org/2000/svg" width="32" height="32" viewBox="0 0 32 32"><defs><style>.a{fill:none;}.b{fill:#fff;}</style></defs><rect class="a" width="32" height="32"/><g transform="translate(1.778 3.125)"><path class="b" d="M203.92,377.824c.017-.021.414-.536.823-.247a.711.711,0,0,1,.265.808.2.2,0,0,0,.117.255.212.212,0,0,0,.069.012.2.2,0,0,0,.186-.131,1.1,1.1,0,0,0-.409-1.269,1,1,0,0,0-1.368.332.2.2,0,1,0,.316.239Z" transform="translate(-189.572 -372.817)"/><path class="b" d="M199.98,380.055a.2.2,0,0,0-.2.2.2.2,0,0,0,.2.2,1.023,1.023,0,0,1,1.141,1.023,1.077,1.077,0,0,1-.933,1.026.2.2,0,0,0,.03.395l.03,0a1.453,1.453,0,0,0,1.269-1.419A1.438,1.438,0,0,0,199.98,380.055Z" transform="translate(-189.152 -373.147)"/><path class="b" d="M204.5,380.808a2.043,2.043,0,0,0,1.607-.735,2.345,2.345,0,0,0,.508-1.623.2.2,0,0,0-.391.068,1.966,1.966,0,0,1-.425,1.3,1.666,1.666,0,0,1-1.31.589,1.794,1.794,0,0,1-1.806-1.572.2.2,0,0,0-.393.055,2.213,2.213,0,0,0,2.137,1.914Z" transform="translate(-189.43 -372.95)"/><path class="b" d="M197.239,379.023a1.488,1.488,0,0,0-1.746,1.191,1.309,1.309,0,0,0,1,1.589.173.173,0,0,0,.036,0,.2.2,0,0,0,.036-.394.915.915,0,0,1-.683-1.142c.139-.971,1.26-.859,1.308-.853a.2.2,0,0,0,.045-.395Z" transform="translate(-188.673 -373.031)"/><path class="b" d="M205.215,383.114a.2.2,0,0,0-.348.193,2.891,2.891,0,0,0,.925.915c.005.18-.014.616-.33.758a.7.7,0,0,1-.792-.272.2.2,0,0,0-.261-.1.2.2,0,0,0-.1.261,1.15,1.15,0,0,0,.581.493.967.967,0,0,0,.352.068.943.943,0,0,0,.387-.084,1.048,1.048,0,0,0,.558-.917,2.914,2.914,0,0,0,1.157.233,3.8,3.8,0,0,0,1.047-.155.2.2,0,0,0-.109-.382A2.553,2.553,0,0,1,205.215,383.114Z" transform="translate(-189.653 -373.475)"/><path class="b" d="M202.046,372.283c-7.854,0-14.223.738-14.223,1.651v11.237c0,.85,2.165,2.1,3.8,2.712a10.426,10.426,0,0,0,20.844,0c1.634-.609,3.8-1.862,3.8-2.712V373.934C216.267,373.021,209.9,372.283,202.046,372.283Zm0,23.828a8.508,8.508,0,0,1-8.483-7.868h2.068a8.512,8.512,0,0,0,7.452,7.8A8.66,8.66,0,0,1,202.046,396.111Zm7.75-14.842a1.859,1.859,0,0,1-1.053,1.24,2.755,2.755,0,0,0-2.836-1.582.2.2,0,0,0,.06.393,2.3,2.3,0,0,1,2.411,1.348l.009.02a2.147,2.147,0,0,1-.367,2.268,2.758,2.758,0,0,1-.517.492.937.937,0,0,1-.69-.321.671.671,0,0,1,.029-.593.2.2,0,0,0-.348-.193,1.066,1.066,0,0,0-.022.991,1,1,0,0,0,.533.4,2.8,2.8,0,0,1-1.467.23c-.184-.037-.349-.037-.312.331s.441,1.875.441,1.875l-1.14.11a4.252,4.252,0,0,0-1.437-2.314.744.744,0,0,1,.4-.786.537.537,0,0,1,.7.257.2.2,0,0,0,.351-.185.923.923,0,0,0-1.207-.436,1.018,1.018,0,0,0-.62.868,5.648,5.648,0,0,0-1.988-.774,1.08,1.08,0,0,1-.646-1.069.837.837,0,0,1,.245-.625,1.421,1.421,0,0,1,.907-.3.2.2,0,0,0,.013-.4,1.816,1.816,0,0,0-1.193.412,1.227,1.227,0,0,0-.369.908,1.511,1.511,0,0,0,.493,1.188A2.329,2.329,0,0,1,198,383.537a1.213,1.213,0,0,0-.159-.2,1.507,1.507,0,0,1-.5-.98c-.059-.591.764-1.156,1.086-1.325a.2.2,0,0,0-.183-.352c-.058.03-1.4.737-1.3,1.717a1.537,1.537,0,0,0,.484.987,2.717,2.717,0,0,1-1.1-.2,1.544,1.544,0,0,1-1.524.137.921.921,0,0,1-.043-.792.8.8,0,0,1,.6-.255.194.194,0,0,0,.2-.194.2.2,0,0,0-.195-.2,1.169,1.169,0,0,0-.938.431.945.945,0,0,0-.13.656,3.306,3.306,0,0,1-.691-1.067,2.831,2.831,0,0,1,.4-3.258,2.027,2.027,0,0,1,.442-1.543,2.273,2.273,0,0,1,1.386-.568,1.3,1.3,0,0,1,1.249-1.091.893.893,0,0,1,.485,1.1,1.533,1.533,0,0,0-.546,1.218.2.2,0,0,0,.2.178h.02a.2.2,0,0,0,.177-.218c0-.041-.087-1,1.309-1.266s1.633.733,1.643.775a.2.2,0,1,0,.388-.083,1.623,1.623,0,0,0-2.1-1.082,2.762,2.762,0,0,0-.628.194,1.183,1.183,0,0,0-.345-.838,2.927,2.927,0,0,1,1.573-1.041,3.633,3.633,0,0,1,1.913.071,1.34,1.34,0,0,1,1.066-.478,1.482,1.482,0,0,1,.746.263,3.521,3.521,0,0,0-1.325,1.1.2.2,0,0,0,.329.223,3.015,3.015,0,0,1,1.772-1.155l.039-.007a2.89,2.89,0,0,1,.866-.015,1.317,1.317,0,0,1,1.052.8,2.926,2.926,0,0,1,1.594.614,2.751,2.751,0,0,1,.979,1.3,1.683,1.683,0,0,1,1.18.911,1.838,1.838,0,0,1,.125,1.382,1.047,1.047,0,0,0-.788-.013,1.148,1.148,0,0,0-.587.644.2.2,0,0,0,.124.252.207.207,0,0,0,.065.011.2.2,0,0,0,.188-.135.755.755,0,0,1,.364-.4.66.66,0,0,1,.479.015l.012,0C209.644,379.825,209.966,380.339,209.8,381.269Z" transform="translate(-187.823 -372.283)"/><path class="b" d="M207.761,376.329a.2.2,0,0,0-.224.328,2.593,2.593,0,0,1,1.228,3.02.2.2,0,0,0,.157.233.176.176,0,0,0,.037,0,.2.2,0,0,0,.195-.161A2.968,2.968,0,0,0,207.761,376.329Z" transform="translate(-190.004 -372.729)"/></g></svg>