<svg xmlns="http://www.w3.org/2000/svg" width="32" height="32" viewBox="0 0 32 32">
  <g id="new_web_0120" data-name="new web_0120" opacity="0.96">
    <path id="パス_13" data-name="パス 13" d="M0,0H32V32H0Z" fill="none"/>
    <path id="film-solid" d="M30.5,64H30v1.25a.752.752,0,0,1-.75.75h-2.5a.752.752,0,0,1-.75-.75V64H6v1.25a.752.752,0,0,1-.75.75H2.75A.752.752,0,0,1,2,65.25V64H1.5A1.5,1.5,0,0,0,0,65.5v21A1.5,1.5,0,0,0,1.5,88H2V86.75A.752.752,0,0,1,2.75,86h2.5a.752.752,0,0,1,.75.75V88H26V86.75a.752.752,0,0,1,.75-.75h2.5a.752.752,0,0,1,.75.75V88h.5A1.5,1.5,0,0,0,32,86.5v-21A1.5,1.5,0,0,0,30.5,64ZM6,83.25a.752.752,0,0,1-.75.75H2.75A.752.752,0,0,1,2,83.25v-2.5A.752.752,0,0,1,2.75,80h2.5a.752.752,0,0,1,.75.75Zm0-6a.752.752,0,0,1-.75.75H2.75A.752.752,0,0,1,2,77.25v-2.5A.752.752,0,0,1,2.75,74h2.5a.752.752,0,0,1,.75.75Zm0-6a.752.752,0,0,1-.75.75H2.75A.752.752,0,0,1,2,71.25v-2.5A.752.752,0,0,1,2.75,68h2.5a.752.752,0,0,1,.75.75Zm17,13a.752.752,0,0,1-.75.75H9.75A.752.752,0,0,1,9,84.25v-6a.752.752,0,0,1,.75-.75h12.5a.752.752,0,0,1,.75.75Zm0-10.5a.752.752,0,0,1-.75.75H9.75A.752.752,0,0,1,9,73.75v-6A.752.752,0,0,1,9.75,67h12.5a.752.752,0,0,1,.75.75Zm7,9.5a.752.752,0,0,1-.75.75h-2.5a.752.752,0,0,1-.75-.75v-2.5a.752.752,0,0,1,.75-.75h2.5a.752.752,0,0,1,.75.75Zm0-6a.752.752,0,0,1-.75.75h-2.5a.752.752,0,0,1-.75-.75v-2.5a.752.752,0,0,1,.75-.75h2.5a.752.752,0,0,1,.75.75Zm0-6a.752.752,0,0,1-.75.75h-2.5a.752.752,0,0,1-.75-.75v-2.5a.752.752,0,0,1,.75-.75h2.5a.752.752,0,0,1,.75.75Z" transform="translate(0 -60)" fill="#fff"/>
  </g>
</svg>
