<svg xmlns="http://www.w3.org/2000/svg" width="352" height="88" viewBox="0 0 352 88"><defs><style>.a{fill:none;}.b{fill:#212121;}.c{fill:#034ea1;}.d{fill:#707070;}</style></defs><g transform="translate(-789 -116)"><rect class="a" width="352" height="88" transform="translate(789 116)"/><g transform="translate(727.949 -114.578)"><path class="b" d="M87.552,238.579l6.311,42.3H82.6l-.588-7.607H78.084l-.655,7.607H66.05l5.632-42.3Zm-5.842,27.2Q80.9,258.591,80.06,248q-1.637,12.157-2.086,17.781Z"/><path class="b" d="M117.3,248.371l-.379,4.565q2.315-4.9,6.684-5.209v12.207a8.6,8.6,0,0,0-4.26.794,3.2,3.2,0,0,0-1.68,2.182,38.935,38.935,0,0,0-.3,6.447v13.7H106.81V248.371Z" transform="translate(-9.699 -2.177)"/><path class="b" d="M157.417,266.3H143.724v7.553a7.762,7.762,0,0,0,.363,3.038,1.3,1.3,0,0,0,1.315.68,1.619,1.619,0,0,0,1.631-.907,10.222,10.222,0,0,0,.4-3.508v-4.592h9.988v2.57a23.958,23.958,0,0,1-.387,4.952,10.378,10.378,0,0,1-1.915,3.689,9.107,9.107,0,0,1-3.765,2.935,14.641,14.641,0,0,1-5.747.991,16.527,16.527,0,0,1-5.9-.979,9.311,9.311,0,0,1-3.979-2.642,9.887,9.887,0,0,1-1.988-3.718,24.369,24.369,0,0,1-.533-5.9V260.343a17.027,17.027,0,0,1,1.226-7.181,8.367,8.367,0,0,1,4.018-4.029,16,16,0,0,1,13.745.294,9.174,9.174,0,0,1,4.08,4.463,21.175,21.175,0,0,1,1.143,7.828Zm-10.576-5.636v-2.544a12.572,12.572,0,0,0-.293-3.476,1.144,1.144,0,0,0-1.186-.787c-.735,0-1.193.228-1.369.667a14,14,0,0,0-.268,3.6v2.544Z" transform="translate(-15.98 -2.177)"/><path class="b" d="M193.616,261.466H183.67v-4.012a8.089,8.089,0,0,0-.341-2.852,1.246,1.246,0,0,0-1.254-.746,1.217,1.217,0,0,0-1.225.659,8.343,8.343,0,0,0-.326,2.939v16.4a6.391,6.391,0,0,0,.476,2.791,1.478,1.478,0,0,0,1.388.927,1.436,1.436,0,0,0,1.469-.956,11.968,11.968,0,0,0,.372-3.66v-4.136h9.388a58.583,58.583,0,0,1-.283,6.227,10.272,10.272,0,0,1-1.76,4.255,9.376,9.376,0,0,1-3.848,3.288,14.05,14.05,0,0,1-5.876,1.112,13.844,13.844,0,0,1-7.092-1.543,8.394,8.394,0,0,1-3.69-4.277,22.9,22.9,0,0,1-1.076-7.837v-9.861a19.393,19.393,0,0,1,.884-6.661,8.632,8.632,0,0,1,3.787-4.017,13.205,13.205,0,0,1,7.049-1.779,13.528,13.528,0,0,1,7.059,1.761,8.746,8.746,0,0,1,3.9,4.421A23.481,23.481,0,0,1,193.616,261.466Z" transform="translate(-24.734 -2.177)"/><path class="b" d="M230,260.55v8.491a36.182,36.182,0,0,1-.469,6.868,9.722,9.722,0,0,1-2,4.082,9.1,9.1,0,0,1-3.979,2.8,15.767,15.767,0,0,1-5.543.909,19.5,19.5,0,0,1-5.915-.789,7.984,7.984,0,0,1-3.787-2.317,9.248,9.248,0,0,1-1.92-3.766,28.508,28.508,0,0,1-.58-6.621V261.3a21.786,21.786,0,0,1,1.055-7.55,8.63,8.63,0,0,1,3.759-4.366,13.173,13.173,0,0,1,6.952-1.66,15.842,15.842,0,0,1,6.086,1.069,9.667,9.667,0,0,1,3.931,2.762,9.182,9.182,0,0,1,1.9,3.495A22.073,22.073,0,0,1,230,260.55Zm-10.544-2.627a11.375,11.375,0,0,0-.29-3.377,1.189,1.189,0,0,0-1.225-.691,1.273,1.273,0,0,0-1.275.691,11.238,11.238,0,0,0-.317,3.377v15.692a10.75,10.75,0,0,0,.317,3.214,1.225,1.225,0,0,0,1.238.741,1.2,1.2,0,0,0,1.244-.68,8.509,8.509,0,0,0,.308-2.933Z" transform="translate(-33.257 -2.177)"/><path class="b" d="M253.784,248.371l-.155,3.2a7.859,7.859,0,0,1,2.8-2.87,7.6,7.6,0,0,1,3.842-.975,7.326,7.326,0,0,1,4.448,1.284,5.766,5.766,0,0,1,2.22,3.229,28.827,28.827,0,0,1,.506,6.5v24.312H256.9V259.012a20.743,20.743,0,0,0-.244-4.369c-.155-.514-.594-.787-1.326-.787a1.339,1.339,0,0,0-1.424.911,23.758,23.758,0,0,0-.277,4.82v23.469H243.085V248.371Z" transform="translate(-42.126 -2.177)"/><path class="b" d="M292.083,242.5v5.478h2.9v5.485h-2.9V272c0,2.29.12,3.553.357,3.819.235.25,1.222.392,2.967.392v5.606h-4.263a30.338,30.338,0,0,1-5.165-.3,5.358,5.358,0,0,1-2.717-1.39,4.587,4.587,0,0,1-1.479-2.479,45.149,45.149,0,0,1-.283-6.577v-17.6h-2.256v-5.485H281.5V242.5Z" transform="translate(-50.731 -0.934)"/><path class="c" d="M343.872,238.579l-5.625,42.3h-16.7l-6.333-42.3h11.6q2.008,17.5,2.878,29.587.893-12.231,1.833-21.719l.738-7.868Z" transform="translate(-59.29)"/><path class="c" d="M367.915,238.579v5.537H357.03v-5.537Zm0,7.615v34.684H357.03V246.194Z" transform="translate(-69.24)"/><path class="c" d="M398.583,259.417h-9.342v-1.87a9.811,9.811,0,0,0-.284-3.057c-.174-.421-.661-.635-1.384-.635a1.6,1.6,0,0,0-1.345.591,2.957,2.957,0,0,0-.433,1.768,8.253,8.253,0,0,0,.232,2.336,3.551,3.551,0,0,0,1.321,1.641,29.029,29.029,0,0,0,4.571,2.589c3.067,1.507,5.074,2.921,6.049,4.239a9.96,9.96,0,0,1,1.43,5.788,14.7,14.7,0,0,1-1.1,6.407,7.291,7.291,0,0,1-3.671,3.31,14.98,14.98,0,0,1-6.218,1.177,16.725,16.725,0,0,1-6.869-1.264,7.525,7.525,0,0,1-3.937-3.387,15.006,15.006,0,0,1-1.076-6.483V270.9h9.348v2.2a12.036,12.036,0,0,0,.354,3.637,1.369,1.369,0,0,0,1.409.835,1.927,1.927,0,0,0,1.58-.564,4.145,4.145,0,0,0,.451-2.366,5.5,5.5,0,0,0-.576-3.121,51.94,51.94,0,0,0-6.151-3.7c-3.125-1.757-5.019-3.332-5.7-4.755A11.852,11.852,0,0,1,376.216,258a13.319,13.319,0,0,1,1.1-6.137,7.1,7.1,0,0,1,3.741-3.047,16.1,16.1,0,0,1,6.1-1.085,17.318,17.318,0,0,1,5.872.889,9.085,9.085,0,0,1,3.726,2.295,6.175,6.175,0,0,1,1.555,2.674,19.57,19.57,0,0,1,.268,3.836Z" transform="translate(-73.806 -2.177)"/><path class="c" d="M422.271,238.579v5.537H411.386v-5.537Zm0,7.615v34.684H411.386V246.194Z" transform="translate(-82.175)"/><path class="c" d="M455.395,260.55v8.491a35.046,35.046,0,0,1-.463,6.868,9.659,9.659,0,0,1-2,4.082,9.078,9.078,0,0,1-3.961,2.8,15.851,15.851,0,0,1-5.558.909,19.73,19.73,0,0,1-5.933-.789,7.818,7.818,0,0,1-3.76-2.317,9.055,9.055,0,0,1-1.914-3.766,27.348,27.348,0,0,1-.585-6.621V261.3a21.334,21.334,0,0,1,1.046-7.55,8.682,8.682,0,0,1,3.747-4.366,13.252,13.252,0,0,1,6.949-1.66,16.012,16.012,0,0,1,6.116,1.069,9.613,9.613,0,0,1,3.912,2.762,9.427,9.427,0,0,1,1.9,3.495A21.871,21.871,0,0,1,455.395,260.55Zm-10.544-2.627a11.336,11.336,0,0,0-.293-3.377,1.163,1.163,0,0,0-1.22-.691,1.2,1.2,0,0,0-1.244.691,9.908,9.908,0,0,0-.344,3.377v15.692a9.463,9.463,0,0,0,.344,3.214,1.165,1.165,0,0,0,1.213.741,1.208,1.208,0,0,0,1.251-.68,8.979,8.979,0,0,0,.293-2.933Z" transform="translate(-86.893 -2.177)"/><path class="c" d="M479.2,248.371l-.186,3.2a7.9,7.9,0,0,1,2.824-2.87,7.533,7.533,0,0,1,3.82-.975,7.358,7.358,0,0,1,4.452,1.284,5.755,5.755,0,0,1,2.226,3.229,29.15,29.15,0,0,1,.5,6.5v24.312H482.292V259.012a23.062,23.062,0,0,0-.235-4.369c-.152-.514-.607-.787-1.318-.787a1.338,1.338,0,0,0-1.433.911,22.507,22.507,0,0,0-.3,4.82v23.469H468.47V248.371Z" transform="translate(-95.758 -2.177)"/><g transform="translate(399.736 241.026)"><path class="c" d="M512.62,246.134a4.344,4.344,0,1,1-4.344-4.344A4.285,4.285,0,0,1,512.62,246.134Zm-8.01,0a3.667,3.667,0,1,0,3.666-3.724A3.635,3.635,0,0,0,504.61,246.134Zm2.709,2.511H506.7v-5.021h1.926c1.133,0,1.635.491,1.635,1.389a1.353,1.353,0,0,1-1.261,1.4l1.494,2.23h-.723l-1.413-2.23H507.32Zm.817-2.756c.759,0,1.507-.024,1.507-.876,0-.7-.585-.863-1.192-.863H507.32v1.74Z" transform="translate(-503.933 -241.79)"/></g><path class="d" d="M208.983,327.764c-.283.049-.54.086-.774.11a6.574,6.574,0,0,1-.682.037,7.393,7.393,0,0,1-.766-.046q-.433-.047-.968-.139l4.131-13.167q.479-.056.895-.092c.276-.025.556-.037.839-.037.233,0,.488.011.765.037s.593.055.95.092l4.075,13.186a12.028,12.028,0,0,1-1.844.166c-.245,0-.492-.013-.737-.037s-.511-.062-.793-.11l-.7-2.564a8.3,8.3,0,0,1-.987.222,6.048,6.048,0,0,1-.93.073,5.938,5.938,0,0,1-.867-.064,7.741,7.741,0,0,1-.922-.194Zm2.583-9.737-1.236,4.74c.21.062.406.111.591.148a2.93,2.93,0,0,0,.572.055,4.067,4.067,0,0,0,.618-.046,5.332,5.332,0,0,0,.636-.138Z" transform="translate(-33.253 -18.049)"/><path class="d" d="M240.653,321.164q0,3.909,3.283,3.909a5.4,5.4,0,0,0,1.116-.11,11.318,11.318,0,0,0,1.282-.369,9.971,9.971,0,0,1,.812,2.73c-.357.135-.689.246-1,.332a7.675,7.675,0,0,1-.885.194c-.283.043-.562.074-.839.091s-.562.028-.857.028a6.976,6.976,0,0,1-2.757-.508,5.5,5.5,0,0,1-1.992-1.411,5.968,5.968,0,0,1-1.208-2.157,8.821,8.821,0,0,1-.405-2.73,8.554,8.554,0,0,1,.424-2.739,6.372,6.372,0,0,1,1.227-2.185,5.5,5.5,0,0,1,1.982-1.439,6.6,6.6,0,0,1,2.674-.517,10.537,10.537,0,0,1,1.679.129,8.67,8.67,0,0,1,1.77.517,5.414,5.414,0,0,1-.277,1.466,10.819,10.819,0,0,1-.5,1.244q-.369-.128-.673-.221c-.2-.062-.4-.11-.581-.148s-.369-.064-.553-.082a5.791,5.791,0,0,0-.591-.027,2.82,2.82,0,0,0-2.314,1A4.66,4.66,0,0,0,240.653,321.164Z" transform="translate(-40.727 -18.015)"/><path class="d" d="M255.573,321.182a10.466,10.466,0,0,1,.341-2.739,6.188,6.188,0,0,1,1.051-2.186,4.934,4.934,0,0,1,1.808-1.447,6.716,6.716,0,0,1,5.21,0,4.951,4.951,0,0,1,1.8,1.447,6.2,6.2,0,0,1,1.052,2.186,10.5,10.5,0,0,1,.341,2.739,10.277,10.277,0,0,1-.341,2.72,6.107,6.107,0,0,1-1.052,2.158,4.815,4.815,0,0,1-1.8,1.42,6.123,6.123,0,0,1-2.6.507,6.185,6.185,0,0,1-2.609-.507,4.8,4.8,0,0,1-1.808-1.42,6.093,6.093,0,0,1-1.051-2.158A10.246,10.246,0,0,1,255.573,321.182Zm8.17,0q0-4.02-2.342-4.02-2.4,0-2.4,4.02a6.063,6.063,0,0,0,.581,3,1.941,1.941,0,0,0,1.8.986Q263.742,325.165,263.743,321.182Z" transform="translate(-45.098 -18.015)"/><path class="d" d="M283.064,319.67q.775.313,1.392.636a4.165,4.165,0,0,1,1.061.774,3.1,3.1,0,0,1,.682,1.088,4.88,4.88,0,0,1-.1,3.3,3.655,3.655,0,0,1-1.005,1.346,4.607,4.607,0,0,1-1.632.866,7.393,7.393,0,0,1-2.222.3,9.832,9.832,0,0,1-2.019-.184,12.591,12.591,0,0,1-1.89-.572,10.426,10.426,0,0,1,.258-1.373q.185-.728.444-1.485a7.59,7.59,0,0,0,2.951.738,3.093,3.093,0,0,0,1.465-.286,1.027,1.027,0,0,0,.526-.986,1.085,1.085,0,0,0-.11-.508,1.123,1.123,0,0,0-.295-.359,1.882,1.882,0,0,0-.415-.25c-.154-.066-.31-.131-.47-.193l-1.033-.387a6.6,6.6,0,0,1-1.208-.572,3.854,3.854,0,0,1-.932-.784,3.283,3.283,0,0,1-.6-1.042,4.074,4.074,0,0,1-.212-1.382,4.273,4.273,0,0,1,.332-1.734,3.6,3.6,0,0,1,.931-1.281,3.972,3.972,0,0,1,1.447-.793,6.3,6.3,0,0,1,1.9-.267,8.818,8.818,0,0,1,1.817.184A14.98,14.98,0,0,1,286,315a9.532,9.532,0,0,1-.267,1.3,8.118,8.118,0,0,1-.488,1.337q-.48-.2-1.126-.424a4.992,4.992,0,0,0-1.6-.221,2.739,2.739,0,0,0-.562.055,1.65,1.65,0,0,0-.479.175.933.933,0,0,0-.341.332.994.994,0,0,0-.129.526.921.921,0,0,0,.35.793,3.554,3.554,0,0,0,.83.443Z" transform="translate(-50.275 -18.015)"/><path class="d" d="M298.121,317.452h-3.079a6.313,6.313,0,0,1,0-2.877h9.423q.073.407.11.756a6.219,6.219,0,0,1,.037.664,8.7,8.7,0,0,1-.147,1.458h-3.079V327.78a10.063,10.063,0,0,1-1.623.166,9.865,9.865,0,0,1-1.641-.166Z" transform="translate(-54.45 -18.084)"/><path class="d" d="M313.989,327.764c-.283.049-.541.086-.774.11a6.576,6.576,0,0,1-.683.037,7.392,7.392,0,0,1-.765-.046q-.433-.047-.968-.139l4.131-13.167q.479-.056.895-.092c.277-.025.555-.037.838-.037.234,0,.489.011.766.037s.593.055.95.092l4.076,13.186a12.044,12.044,0,0,1-1.844.166c-.246,0-.492-.013-.738-.037s-.51-.062-.793-.11l-.7-2.564a8.34,8.34,0,0,1-.987.222,6.041,6.041,0,0,1-.93.073,5.946,5.946,0,0,1-.867-.064,7.743,7.743,0,0,1-.922-.194Zm2.582-9.737-1.235,4.74c.209.062.405.111.59.148a2.942,2.942,0,0,0,.572.055,4.07,4.07,0,0,0,.619-.046,5.29,5.29,0,0,0,.636-.138Z" transform="translate(-58.239 -18.049)"/><path class="d" d="M332.507,314.543q.9-.093,1.669-.175a14.89,14.89,0,0,1,1.613-.083,10.832,10.832,0,0,1,2.029.194,5.436,5.436,0,0,1,1.807.674,3.76,3.76,0,0,1,1.291,1.309,4.025,4.025,0,0,1,.5,2.1,4.434,4.434,0,0,1-.156,1.227,4.192,4.192,0,0,1-.406.968,3.807,3.807,0,0,1-.553.738,5.12,5.12,0,0,1-.6.535l2.877,5.68q-.442.074-.969.111t-.95.037c-.245,0-.532-.013-.857-.037a7.038,7.038,0,0,1-.857-.111l-2.618-6.031.165-.092a2.069,2.069,0,0,0,.488-.368,3.394,3.394,0,0,0,.5-.619,3.891,3.891,0,0,0,.388-.8,2.744,2.744,0,0,0,.156-.922,1.644,1.644,0,0,0-.516-1.347,1.943,1.943,0,0,0-1.272-.424,2.285,2.285,0,0,0-.315.019.634.634,0,0,0-.165.037v10.548a9.988,9.988,0,0,1-1.6.166,9.862,9.862,0,0,1-1.641-.166Z" transform="translate(-63.405 -18.015)"/><path class="d" d="M365.406,321.164q0,3.909,3.283,3.909a5.389,5.389,0,0,0,1.116-.11,11.319,11.319,0,0,0,1.282-.369,9.948,9.948,0,0,1,.812,2.73c-.357.135-.688.246-1,.332a7.673,7.673,0,0,1-.885.194c-.283.043-.562.074-.838.091s-.563.028-.857.028a6.978,6.978,0,0,1-2.758-.508,5.5,5.5,0,0,1-1.992-1.411,5.979,5.979,0,0,1-1.208-2.157,8.844,8.844,0,0,1-.405-2.73,8.555,8.555,0,0,1,.424-2.739,6.37,6.37,0,0,1,1.226-2.185,5.5,5.5,0,0,1,1.983-1.439,6.6,6.6,0,0,1,2.673-.517,10.53,10.53,0,0,1,1.679.129,8.669,8.669,0,0,1,1.77.517,5.384,5.384,0,0,1-.277,1.466,10.823,10.823,0,0,1-.5,1.244c-.246-.085-.47-.159-.674-.221s-.4-.11-.581-.148-.369-.064-.553-.082a5.766,5.766,0,0,0-.59-.027,2.818,2.818,0,0,0-2.314,1A4.66,4.66,0,0,0,365.406,321.164Z" transform="translate(-70.413 -18.015)"/><path class="d" d="M380.327,321.182a10.532,10.532,0,0,1,.341-2.739,6.2,6.2,0,0,1,1.052-2.186,4.928,4.928,0,0,1,1.808-1.447,6.714,6.714,0,0,1,5.209,0,4.953,4.953,0,0,1,1.8,1.447,6.2,6.2,0,0,1,1.052,2.186,10.5,10.5,0,0,1,.341,2.739,10.278,10.278,0,0,1-.341,2.72,6.107,6.107,0,0,1-1.052,2.158,4.817,4.817,0,0,1-1.8,1.42,6.947,6.947,0,0,1-5.209,0,4.8,4.8,0,0,1-1.808-1.42,6.108,6.108,0,0,1-1.052-2.158A10.31,10.31,0,0,1,380.327,321.182Zm8.17,0q0-4.02-2.342-4.02-2.4,0-2.4,4.02a6.062,6.062,0,0,0,.581,3,1.941,1.941,0,0,0,1.8.986Q388.5,325.165,388.5,321.182Z" transform="translate(-74.784 -18.015)"/><path class="d" d="M403.174,314.578q.387-.056.839-.1a8.142,8.142,0,0,1,.839-.046,7.477,7.477,0,0,1,.8.046q.433.046.8.1l2.619,6.86,2.711-6.86q.368-.056.747-.1a6.052,6.052,0,0,1,.747-.046,6.925,6.925,0,0,1,.793.046c.27.03.535.064.793.1l.626,13.167c-.2.037-.415.074-.655.11a6.427,6.427,0,0,1-.95.056,8.49,8.49,0,0,1-1.53-.166l-.258-7.635-2.029,5.034q-.332.056-.664.092a5.252,5.252,0,0,1-.608.037c-.185,0-.376-.009-.572-.027a4.273,4.273,0,0,1-.608-.1l-1.808-4.961-.2,7.562a7.049,7.049,0,0,1-1.475.166,7.9,7.9,0,0,1-1.494-.166Z" transform="translate(-80.093 -18.049)"/><path class="d" d="M427.058,314.543q.424-.056,1.3-.157a19.855,19.855,0,0,1,2.2-.1,10.839,10.839,0,0,1,1.974.184,5.041,5.041,0,0,1,1.8.692,3.759,3.759,0,0,1,1.3,1.43,5.034,5.034,0,0,1,.5,2.4,5.221,5.221,0,0,1-.4,2.176,3.649,3.649,0,0,1-1.051,1.383,4.053,4.053,0,0,1-1.494.738,6.75,6.75,0,0,1-1.724.222c-.234,0-.47-.01-.71-.028a3.522,3.522,0,0,1-.508-.064v4.3q-.48.091-.867.129c-.258.024-.5.037-.719.037a9.713,9.713,0,0,1-1.6-.166Zm3.19,6.234a1.22,1.22,0,0,0,.313.055c.149.013.3.018.462.018a1.666,1.666,0,0,0,1.789-1.862,2.436,2.436,0,0,0-.157-.931,1.549,1.549,0,0,0-.433-.608,1.586,1.586,0,0,0-.646-.323,3.2,3.2,0,0,0-.774-.092h-.258a2.394,2.394,0,0,0-.3.018Z" transform="translate(-85.904 -18.015)"/><path class="d" d="M446.22,327.764c-.283.049-.541.086-.775.11a6.551,6.551,0,0,1-.682.037,7.392,7.392,0,0,1-.765-.046q-.433-.047-.969-.139l4.131-13.167q.479-.056.895-.092c.277-.025.556-.037.839-.037.233,0,.488.011.765.037s.594.055.95.092l4.075,13.186a12.036,12.036,0,0,1-1.844.166c-.246,0-.492-.013-.738-.037s-.51-.062-.793-.11l-.7-2.564a8.373,8.373,0,0,1-.987.222,6.05,6.05,0,0,1-.931.073,5.954,5.954,0,0,1-.867-.064,7.774,7.774,0,0,1-.922-.194Zm2.582-9.737-1.236,4.74c.21.062.406.111.591.148a2.93,2.93,0,0,0,.572.055,4.059,4.059,0,0,0,.618-.046,5.288,5.288,0,0,0,.636-.138Z" transform="translate(-89.704 -18.049)"/><path class="d" d="M464.738,314.578c.271-.049.517-.086.738-.111a5.716,5.716,0,0,1,.645-.037,5.351,5.351,0,0,1,.692.046q.359.046.617.1l4.279,7.229v-7.229q.48-.073.866-.111c.258-.025.492-.037.7-.037a6.2,6.2,0,0,1,.664.037c.233.024.479.062.738.111l-.018,13.167a4.375,4.375,0,0,1-.534.11,5.264,5.264,0,0,1-1.587-.009c-.246-.043-.424-.076-.535-.1l-4.3-7.192v7.192a7.447,7.447,0,0,1-1.476.166,7.7,7.7,0,0,1-1.494-.166Z" transform="translate(-94.87 -18.049)"/><path class="d" d="M492.059,314.578q.424-.073.885-.111c.307-.025.62-.037.94-.037.209,0,.479.014.812.046s.614.064.848.1l-4.113,8.464v4.7a10.056,10.056,0,0,1-1.622.166,9.88,9.88,0,0,1-1.642-.166v-4.7q-.479-1-1-2.074l-1.052-2.158q-.526-1.079-1.042-2.157t-1-2.075q.314-.056.848-.1c.357-.031.695-.046,1.015-.046.258,0,.543.014.857.046s.587.064.821.1l2.268,5.127Z" transform="translate(-99.471 -18.049)"/></g></g></svg>