<svg xmlns="http://www.w3.org/2000/svg" width="194" height="40" viewBox="0 0 194 40"><defs><style>.a{fill:none;}.b{fill:#fff;}</style></defs><g transform="translate(-16 -8)"><rect class="a" width="194" height="40" transform="translate(16 8)"/><g transform="translate(-49.05 -222.579)"><path class="b" d="M78.066,238.579l3.527,23.639H75.3l-.329-4.251h-2.2l-.366,4.251H66.05L69.2,238.579Zm-3.265,15.2q-.452-4.019-.922-9.937-.915,6.794-1.166,9.937Z"/><path class="b" d="M112.672,248.086l-.212,2.551a4.435,4.435,0,0,1,3.735-2.911v6.822a4.805,4.805,0,0,0-2.381.444,1.788,1.788,0,0,0-.939,1.219,21.76,21.76,0,0,0-.17,3.6v7.656h-5.9V248.086Z" transform="translate(-23.401 -5.252)"/><path class="b" d="M146.736,258.106h-7.652v4.221a4.338,4.338,0,0,0,.2,1.7.727.727,0,0,0,.735.38.9.9,0,0,0,.911-.507,5.712,5.712,0,0,0,.222-1.96v-2.566h5.582v1.436a13.387,13.387,0,0,1-.216,2.767,5.8,5.8,0,0,1-1.07,2.062,5.089,5.089,0,0,1-2.1,1.64,8.182,8.182,0,0,1-3.212.554,9.236,9.236,0,0,1-3.3-.547,5.2,5.2,0,0,1-2.224-1.476,5.525,5.525,0,0,1-1.111-2.078,13.618,13.618,0,0,1-.3-3.3v-5.655a9.516,9.516,0,0,1,.685-4.013,4.676,4.676,0,0,1,2.246-2.252,8.942,8.942,0,0,1,7.681.164,5.127,5.127,0,0,1,2.28,2.494,11.834,11.834,0,0,1,.639,4.375Zm-5.911-3.15v-1.422a7.026,7.026,0,0,0-.164-1.942.639.639,0,0,0-.663-.44c-.411,0-.666.127-.765.373a7.822,7.822,0,0,0-.15,2.01v1.422Z" transform="translate(-38.556 -5.252)"/><path class="b" d="M183.194,255.4h-5.558v-2.242a4.521,4.521,0,0,0-.191-1.594.7.7,0,0,0-.7-.417.68.68,0,0,0-.685.368,4.663,4.663,0,0,0-.182,1.643v9.164a3.572,3.572,0,0,0,.266,1.56.826.826,0,0,0,.776.518.8.8,0,0,0,.821-.534,6.688,6.688,0,0,0,.208-2.045v-2.312h5.247a32.738,32.738,0,0,1-.158,3.48,5.741,5.741,0,0,1-.983,2.378,5.24,5.24,0,0,1-2.15,1.838,7.852,7.852,0,0,1-3.284.621,7.737,7.737,0,0,1-3.963-.862,4.691,4.691,0,0,1-2.062-2.39,12.8,12.8,0,0,1-.6-4.38v-5.511a10.838,10.838,0,0,1,.494-3.723,4.824,4.824,0,0,1,2.117-2.245,7.38,7.38,0,0,1,3.939-.994,7.56,7.56,0,0,1,3.945.984,4.888,4.888,0,0,1,2.178,2.47A13.123,13.123,0,0,1,183.194,255.4Z" transform="translate(-59.676 -5.252)"/><path class="b" d="M219.331,254.893v4.745a20.222,20.222,0,0,1-.262,3.838,5.434,5.434,0,0,1-1.117,2.281,5.088,5.088,0,0,1-2.224,1.564,8.811,8.811,0,0,1-3.1.508,10.9,10.9,0,0,1-3.306-.441,4.462,4.462,0,0,1-2.117-1.295,5.168,5.168,0,0,1-1.073-2.1,15.931,15.931,0,0,1-.324-3.7v-4.978a12.175,12.175,0,0,1,.59-4.219,4.823,4.823,0,0,1,2.1-2.44,7.362,7.362,0,0,1,3.885-.928,8.853,8.853,0,0,1,3.4.6,5.4,5.4,0,0,1,2.2,1.543,5.132,5.132,0,0,1,1.06,1.953A12.336,12.336,0,0,1,219.331,254.893Zm-5.892-1.468a6.357,6.357,0,0,0-.162-1.887.664.664,0,0,0-.685-.386.712.712,0,0,0-.712.386,6.281,6.281,0,0,0-.177,1.887v8.77a6.008,6.008,0,0,0,.177,1.8.685.685,0,0,0,.692.414.672.672,0,0,0,.7-.38,4.755,4.755,0,0,0,.172-1.639Z" transform="translate(-80.24 -5.252)"/><path class="b" d="M249.064,248.086l-.087,1.789a4.392,4.392,0,0,1,1.563-1.6,4.248,4.248,0,0,1,2.147-.545,4.094,4.094,0,0,1,2.486.718,3.223,3.223,0,0,1,1.241,1.8,16.112,16.112,0,0,1,.283,3.635V267.47h-5.891V254.033a11.591,11.591,0,0,0-.136-2.442c-.087-.287-.332-.44-.741-.44a.748.748,0,0,0-.8.509,13.277,13.277,0,0,0-.155,2.694V267.47h-5.892V248.086Z" transform="translate(-101.641 -5.252)"/><path class="b" d="M286.419,242.5v3.061h1.619v3.065h-1.619v10.356a5.522,5.522,0,0,0,.2,2.134,3.3,3.3,0,0,0,1.658.219v3.133h-2.382a16.955,16.955,0,0,1-2.887-.165,2.994,2.994,0,0,1-1.518-.777,2.563,2.563,0,0,1-.827-1.385,25.23,25.23,0,0,1-.158-3.676V248.63h-1.261v-3.065H280.5V242.5Z" transform="translate(-122.401 -2.253)"/><path class="b" d="M331.23,238.579l-3.144,23.639h-9.333l-3.539-23.639H321.7q1.122,9.778,1.609,16.535.5-6.835,1.024-12.138l.412-4.4Z" transform="translate(-143.052)"/><path class="b" d="M363.113,238.579v3.094H357.03v-3.094Zm0,4.256v19.384H357.03V242.835Z" transform="translate(-167.06)"/><path class="b" d="M388.716,254.26H383.5v-1.045a5.482,5.482,0,0,0-.159-1.708c-.1-.236-.37-.355-.773-.355a.9.9,0,0,0-.752.33,1.653,1.653,0,0,0-.242.988,4.613,4.613,0,0,0,.129,1.305,1.985,1.985,0,0,0,.738.917,16.223,16.223,0,0,0,2.554,1.447,9.5,9.5,0,0,1,3.381,2.369,5.566,5.566,0,0,1,.8,3.234,8.213,8.213,0,0,1-.615,3.581,4.074,4.074,0,0,1-2.051,1.85,8.372,8.372,0,0,1-3.475.658,9.347,9.347,0,0,1-3.839-.707,4.205,4.205,0,0,1-2.2-1.893,8.386,8.386,0,0,1-.6-3.623v-.93h5.224V261.9a6.727,6.727,0,0,0,.2,2.033.765.765,0,0,0,.787.467,1.077,1.077,0,0,0,.883-.315,2.316,2.316,0,0,0,.252-1.322,3.073,3.073,0,0,0-.322-1.744,29.024,29.024,0,0,0-3.437-2.069c-1.746-.982-2.8-1.862-3.185-2.657a6.623,6.623,0,0,1-.574-2.831,7.444,7.444,0,0,1,.617-3.43,3.965,3.965,0,0,1,2.091-1.7,9,9,0,0,1,3.41-.606,9.678,9.678,0,0,1,3.282.5A5.078,5.078,0,0,1,387.7,249.5a3.451,3.451,0,0,1,.869,1.494,10.933,10.933,0,0,1,.15,2.144Z" transform="translate(-178.075 -5.252)"/><path class="b" d="M417.469,238.579v3.094h-6.083v-3.094Zm0,4.256v19.384h-6.083V242.835Z" transform="translate(-198.267)"/><path class="b" d="M444.728,254.893v4.745a19.585,19.585,0,0,1-.259,3.838,5.4,5.4,0,0,1-1.12,2.281,5.073,5.073,0,0,1-2.214,1.564,8.858,8.858,0,0,1-3.106.508,11.026,11.026,0,0,1-3.316-.441,4.369,4.369,0,0,1-2.1-1.295,5.061,5.061,0,0,1-1.07-2.1,15.284,15.284,0,0,1-.327-3.7v-4.978a11.922,11.922,0,0,1,.584-4.219,4.852,4.852,0,0,1,2.094-2.44,7.406,7.406,0,0,1,3.884-.928,8.949,8.949,0,0,1,3.418.6,5.372,5.372,0,0,1,2.186,1.543,5.268,5.268,0,0,1,1.063,1.953A12.221,12.221,0,0,1,444.728,254.893Zm-5.892-1.468a6.335,6.335,0,0,0-.164-1.887.65.65,0,0,0-.682-.386.673.673,0,0,0-.7.386,5.537,5.537,0,0,0-.193,1.887v8.77a5.289,5.289,0,0,0,.193,1.8.651.651,0,0,0,.678.414.675.675,0,0,0,.7-.38,5.018,5.018,0,0,0,.164-1.639Z" transform="translate(-209.652 -5.252)"/><path class="b" d="M474.465,248.086l-.1,1.789a4.414,4.414,0,0,1,1.578-1.6,4.21,4.21,0,0,1,2.135-.545,4.112,4.112,0,0,1,2.488.718,3.216,3.216,0,0,1,1.244,1.8,16.29,16.29,0,0,1,.278,3.635V267.47h-5.889V254.033a12.889,12.889,0,0,0-.131-2.442c-.085-.287-.339-.44-.736-.44a.747.747,0,0,0-.8.509,12.58,12.58,0,0,0-.165,2.694V267.47H468.47V248.086Z" transform="translate(-231.041 -5.252)"/><g transform="translate(252.532 239.946)"><path class="b" d="M508.788,244.217a2.427,2.427,0,1,1-2.427-2.427A2.395,2.395,0,0,1,508.788,244.217Zm-4.476,0a2.049,2.049,0,1,0,2.049-2.081A2.031,2.031,0,0,0,504.312,244.217Zm1.514,1.4h-.346v-2.806h1.076c.633,0,.913.274.913.776a.756.756,0,0,1-.7.784l.835,1.246h-.4l-.79-1.246h-.58Zm.457-1.54c.424,0,.842-.013.842-.49,0-.391-.327-.483-.666-.483h-.632v.972Z" transform="translate(-503.933 -241.79)"/></g></g></g></svg>