<svg xmlns="http://www.w3.org/2000/svg" width="156" height="40" viewBox="0 0 156 40"><defs><style>.a{fill:none;}.b{fill:#0d0d0d;}.c{fill:#0049ad;}.d{fill:#5f6062;}.e{fill:#4d4e50;}</style></defs><g transform="translate(-16 -8)"><rect class="a" width="156" height="40" transform="translate(16 8)"/><g transform="translate(-146.67 -244.74)"><g transform="translate(162.67 256.74)"><path class="b" d="M178.937,256.74l4.775,32h-8.518l-.445-5.755h-2.973l-.5,5.755H162.67l4.26-32Zm-4.42,20.58q-.612-5.441-1.248-13.451-1.239,9.2-1.578,13.451Z" transform="translate(-162.67 -256.74)"/><path class="c" d="M241.932,256.74l-4.256,32H225.043l-4.791-32h8.774q1.519,13.236,2.178,22.382.675-9.252,1.386-16.43l.558-5.952Z" transform="translate(-201.549 -256.74)"/></g><g transform="translate(208.622 264.255)"><path class="d" d="M308.742,289.049q0,5.214,4.376,5.212a7.19,7.19,0,0,0,1.488-.147,14.9,14.9,0,0,0,1.708-.491,13.239,13.239,0,0,1,1.082,3.639q-.713.271-1.328.443a10.234,10.234,0,0,1-1.179.258c-.378.057-.751.1-1.119.122s-.75.037-1.144.037a9.29,9.29,0,0,1-3.675-.676,7.337,7.337,0,0,1-2.656-1.88,7.982,7.982,0,0,1-1.611-2.877,11.75,11.75,0,0,1-.54-3.639,11.381,11.381,0,0,1,.565-3.651,8.5,8.5,0,0,1,1.634-2.914,7.364,7.364,0,0,1,2.644-1.918,8.812,8.812,0,0,1,3.565-.688,13.861,13.861,0,0,1,2.238.172,11.456,11.456,0,0,1,2.36.688,7.207,7.207,0,0,1-.368,1.955,14.758,14.758,0,0,1-.664,1.659q-.492-.171-.9-.295c-.27-.082-.528-.147-.774-.2s-.492-.085-.738-.11a7.781,7.781,0,0,0-.786-.037,3.759,3.759,0,0,0-3.086,1.34A6.218,6.218,0,0,0,308.742,289.049Z" transform="translate(-304.144 -279.878)"/><path class="d" d="M360.352,289.074a13.932,13.932,0,0,1,.455-3.651,8.221,8.221,0,0,1,1.4-2.914,6.559,6.559,0,0,1,2.409-1.93,7.972,7.972,0,0,1,3.479-.7,7.89,7.89,0,0,1,3.467.7,6.592,6.592,0,0,1,2.4,1.93,8.237,8.237,0,0,1,1.4,2.914,13.976,13.976,0,0,1,.455,3.651,13.7,13.7,0,0,1-.455,3.626,8.117,8.117,0,0,1-1.4,2.877,6.432,6.432,0,0,1-2.4,1.893,8.158,8.158,0,0,1-3.467.676,8.243,8.243,0,0,1-3.479-.676,6.4,6.4,0,0,1-2.409-1.893,8.1,8.1,0,0,1-1.4-2.877A13.654,13.654,0,0,1,360.352,289.074Zm10.892,0q0-5.361-3.123-5.361-3.2,0-3.2,5.361a8.08,8.08,0,0,0,.774,4,2.59,2.59,0,0,0,2.4,1.315Q371.245,294.385,371.244,289.074Z" transform="translate(-342.095 -279.878)"/><path class="d" d="M431.05,287.057q1.033.418,1.856.848a5.584,5.584,0,0,1,1.414,1.033,4.11,4.11,0,0,1,.91,1.45,6.5,6.5,0,0,1-.135,4.4,4.88,4.88,0,0,1-1.34,1.795,6.2,6.2,0,0,1-2.176,1.156,9.911,9.911,0,0,1-2.962.405,13.18,13.18,0,0,1-2.693-.246,16.81,16.81,0,0,1-2.521-.763,14,14,0,0,1,.345-1.832q.246-.971.59-1.979a10.139,10.139,0,0,0,3.934.984,4.138,4.138,0,0,0,1.955-.381,1.371,1.371,0,0,0,.7-1.315,1.447,1.447,0,0,0-.148-.677,1.479,1.479,0,0,0-.393-.479,2.438,2.438,0,0,0-.553-.333c-.2-.089-.413-.176-.626-.258l-1.378-.517a8.765,8.765,0,0,1-1.609-.763,5.132,5.132,0,0,1-1.242-1.044,4.389,4.389,0,0,1-.8-1.39,5.464,5.464,0,0,1-.283-1.843,5.713,5.713,0,0,1,.443-2.312,4.814,4.814,0,0,1,1.241-1.709,5.313,5.313,0,0,1,1.93-1.057,8.418,8.418,0,0,1,2.533-.356,11.733,11.733,0,0,1,2.422.246,19.961,19.961,0,0,1,2.5.713,12.492,12.492,0,0,1-.356,1.733,11.046,11.046,0,0,1-.651,1.783q-.64-.269-1.5-.565a6.691,6.691,0,0,0-2.139-.295,3.635,3.635,0,0,0-.75.074,2.19,2.19,0,0,0-.639.233,1.24,1.24,0,0,0-.455.443,1.326,1.326,0,0,0-.172.7,1.227,1.227,0,0,0,.467,1.057,4.636,4.636,0,0,0,1.107.59Z" transform="translate(-384.667 -279.878)"/><path class="d" d="M481.364,284.62h-4.106a9.523,9.523,0,0,1-.221-1.942,9.62,9.62,0,0,1,.221-1.893h12.565q.1.542.147,1.009a8.642,8.642,0,0,1,.049.885,11.615,11.615,0,0,1-.2,1.942h-4.106v13.77a13.39,13.39,0,0,1-2.164.221,13.116,13.116,0,0,1-2.188-.221Z" transform="translate(-420.88 -280.49)"/><path class="d" d="M531.1,298.108q-.567.1-1.034.148a8.837,8.837,0,0,1-.91.049,9.981,9.981,0,0,1-1.02-.062q-.577-.06-1.29-.184l5.507-17.555c.427-.05.824-.09,1.193-.123s.742-.049,1.119-.049c.311,0,.652.017,1.021.049s.791.073,1.266.123l5.434,17.581a16.012,16.012,0,0,1-2.458.221q-.492,0-.983-.049t-1.057-.148l-.935-3.417a10.785,10.785,0,0,1-1.315.295,7.892,7.892,0,0,1-1.241.1A8.017,8.017,0,0,1,533.24,295a10.349,10.349,0,0,1-1.229-.259Zm3.442-12.981-1.647,6.319q.417.123.786.2a3.817,3.817,0,0,0,.763.074,5.4,5.4,0,0,0,.823-.062,7.186,7.186,0,0,0,.849-.184Z" transform="translate(-454.511 -280.185)"/><path class="d" d="M591,280.223q1.2-.123,2.225-.234a20.086,20.086,0,0,1,2.152-.11,14.4,14.4,0,0,1,2.7.258,7.234,7.234,0,0,1,2.409.9,5.009,5.009,0,0,1,1.721,1.745,5.373,5.373,0,0,1,.664,2.8,5.917,5.917,0,0,1-.209,1.635,5.608,5.608,0,0,1-.54,1.291,5.145,5.145,0,0,1-.738.984,6.98,6.98,0,0,1-.8.713l3.835,7.573q-.59.1-1.29.147t-1.266.048c-.329,0-.709-.017-1.144-.048a9.771,9.771,0,0,1-1.144-.147l-3.491-8.04.221-.123a2.725,2.725,0,0,0,.652-.492,4.572,4.572,0,0,0,.664-.823,5.2,5.2,0,0,0,.515-1.07A3.629,3.629,0,0,0,598.35,286a2.194,2.194,0,0,0-.688-1.795,2.591,2.591,0,0,0-1.7-.565,2.914,2.914,0,0,0-.418.025.925.925,0,0,0-.222.048v14.065a13.288,13.288,0,0,1-2.139.221,13.13,13.13,0,0,1-2.188-.221Z" transform="translate(-497.826 -279.878)"/></g><g transform="translate(313.482 264.487)"><path class="e" d="M627.774,281.108H627a1.448,1.448,0,0,1-.021-.239,1.844,1.844,0,0,1,.021-.259h2.06c.009.045.016.088.021.126a1.075,1.075,0,0,1,.007.126,1.1,1.1,0,0,1-.007.123,1.128,1.128,0,0,1-.021.123H628.3v2.23q-.075.014-.136.02a1.236,1.236,0,0,1-.136.007,1.188,1.188,0,0,1-.126-.007,1.127,1.127,0,0,1-.126-.02Zm1.733-.5.15-.014c.045,0,.091-.007.136-.007s.085,0,.133.007l.153.014.675,1.494.668-1.494.14-.014a1.276,1.276,0,0,1,.133-.007c.045,0,.092,0,.14.007l.146.014.136,2.728c-.055.009-.1.016-.14.02a1.074,1.074,0,0,1-.126.007c-.036,0-.076,0-.12,0a.648.648,0,0,1-.14-.024l-.1-1.739-.587,1.221a.606.606,0,0,1-.1.017c-.027,0-.059,0-.1,0a1.372,1.372,0,0,1-.2-.021l-.539-1.2-.089,1.719a1.223,1.223,0,0,1-.252.027,1.355,1.355,0,0,1-.266-.027Z" transform="translate(-626.983 -280.59)"/></g></g></g></svg>