<svg xmlns="http://www.w3.org/2000/svg" width="170.333" height="24" viewBox="0 0 170.333 24"><defs><style>.a{fill:#4d4d4d;}.b{fill:#4991bf;}</style></defs><path class="a" d="M599.11,750.763h-5.1l-6.335-15.254a.67.67,0,0,0-1.237,0L580.1,750.763H575l9.169-22.073a3.125,3.125,0,0,1,5.773,0Z" transform="translate(-575 -726.763)"/><path class="b" d="M616,802.518v-6.251l6.7,3.125Z" transform="translate(-606.847 -780.751)"/><path class="a" d="M706.627,772.081v7.813h-4.018v-7.813a3.8,3.8,0,0,0-3.795-3.8h0a3.8,3.8,0,0,0-3.8,3.8v7.813H691v-7.813a7.813,7.813,0,0,1,7.813-7.813h0A7.813,7.813,0,0,1,706.627,772.081Z" transform="translate(-665.104 -755.895)"/><path class="a" d="M856.813,764.268v4.018a3.8,3.8,0,0,0-3.8,3.8v7.813H849v-7.813A7.813,7.813,0,0,1,856.813,764.268Z" transform="translate(-787.832 -755.895)"/><path class="a" d="M900.037,762.27a8.037,8.037,0,1,0,8.036,8.037A8.037,8.037,0,0,0,900.037,762.27Zm0,12.5a4.465,4.465,0,1,1,4.465-4.465A4.465,4.465,0,0,1,900.037,774.771Z" transform="translate(-821.232 -754.343)"/><path class="b" d="M1274.036,762.27a8.037,8.037,0,1,0,8.037,8.037A8.037,8.037,0,0,0,1274.036,762.27Zm0,12.5a4.465,4.465,0,1,1,4.465-4.465A4.465,4.465,0,0,1,1274.036,774.771Z" transform="translate(-1111.74 -754.343)"/><circle class="b" cx="2.456" cy="2.456" r="2.456" transform="translate(112.29 0.113)"/><path class="b" d="M988.11,726.763h-5.1l-6.335,15.254a.67.67,0,0,1-1.237,0L969.1,726.763H964l9.169,22.073a3.125,3.125,0,0,0,5.773,0Z" transform="translate(-877.159 -726.763)"/><path class="a" d="M781.055,728.268V738.2a7.59,7.59,0,1,0,0,12.274v1.453h4.018V728.268ZM776.59,748.36a4.018,4.018,0,1,1,4.018-4.018A4.019,4.019,0,0,1,776.59,748.36Z" transform="translate(-725.691 -727.932)"/><path class="b" d="M1118.055,728.268V738.2a7.59,7.59,0,1,0,0,12.274v1.453h4.019V728.268Zm-4.465,20.092a4.018,4.018,0,1,1,4.019-4.018A4.019,4.019,0,0,1,1113.59,748.36Z" transform="translate(-987.459 -727.932)"/><rect class="b" width="4.018" height="16.073" transform="translate(112.737 7.926)"/><g transform="translate(136.4 7.926)"><path class="b" d="M1194.545,778.341a9,9,0,0,1-6.167-2.091,7.052,7.052,0,0,1-2.379-5.573v-.4a8.59,8.59,0,0,1,1-4.176,6.928,6.928,0,0,1,2.841-2.837,8.66,8.66,0,0,1,4.193-1,7.563,7.563,0,0,1,5.562,2.005,7.9,7.9,0,0,1,2.475,5.687,11.026,11.026,0,0,1-.112,1.69c0-.007-11.3,0-11.3,0a3.723,3.723,0,0,0,1.345,2.435,4.344,4.344,0,0,0,2.841.917A5.2,5.2,0,0,0,1199,773.27l2.259,2.278a6.8,6.8,0,0,1-2.8,2.056A10.062,10.062,0,0,1,1194.545,778.341Zm-.525-12.736a3.035,3.035,0,0,0-2.22.835,4.109,4.109,0,0,0-1.09,2.389h6.4V768.5a2.9,2.9,0,0,0-.827-2.137A3.154,3.154,0,0,0,1194.02,765.606Z" transform="translate(-1186 -762.268)"/></g></svg>