<svg xmlns="http://www.w3.org/2000/svg" width="352" height="88" viewBox="0 0 352 88"><defs><style>.a{fill:none;}.b{fill:#0d0d0d;}.c{fill:#0049ad;}.d{fill:#5f6062;}.e{fill:#4d4e50;}</style></defs><g transform="translate(-789 -116)"><rect class="a" width="352" height="88" transform="translate(789 116)"/><g transform="translate(631.33 -131.74)"><g transform="translate(162.67 256.74)"><path class="b" d="M198.253,256.74l10.445,70H190.064l-.974-12.589h-6.5L181.5,326.74H162.67l9.32-70Zm-9.668,45.018q-1.34-11.9-2.73-29.424-2.709,20.118-3.451,29.424Z" transform="translate(-162.67 -256.74)"/><path class="c" d="M267.677,256.74l-9.309,70H230.731l-10.479-70h19.194q3.323,28.954,4.763,48.962,1.476-20.239,3.032-35.941l1.221-13.021Z" transform="translate(-179.339 -256.74)"/></g><g transform="translate(263.189 273.18)"><path class="d" d="M314.2,299.939q0,11.4,9.572,11.4a15.729,15.729,0,0,0,3.256-.323,32.607,32.607,0,0,0,3.737-1.075,28.96,28.96,0,0,1,2.367,7.961q-1.559.593-2.905.969a22.391,22.391,0,0,1-2.58.564c-.826.124-1.642.215-2.448.268s-1.64.08-2.5.08a20.323,20.323,0,0,1-8.039-1.479,16.05,16.05,0,0,1-5.81-4.113,17.46,17.46,0,0,1-3.523-6.293,25.7,25.7,0,0,1-1.182-7.961,24.9,24.9,0,0,1,1.237-7.987,18.6,18.6,0,0,1,3.575-6.373,16.108,16.108,0,0,1,5.784-4.2,19.277,19.277,0,0,1,7.8-1.5,30.316,30.316,0,0,1,4.895.377,25.061,25.061,0,0,1,5.163,1.5,15.764,15.764,0,0,1-.806,4.277,32.276,32.276,0,0,1-1.452,3.63q-1.076-.374-1.965-.644c-.59-.179-1.156-.322-1.694-.431s-1.076-.187-1.614-.242a17.021,17.021,0,0,0-1.72-.081A8.223,8.223,0,0,0,316.6,291.2Q314.2,294.134,314.2,299.939Z" transform="translate(-304.144 -279.878)"/><path class="d" d="M360.352,299.994a30.479,30.479,0,0,1,.995-7.987,17.985,17.985,0,0,1,3.067-6.374,14.348,14.348,0,0,1,5.269-4.222,17.439,17.439,0,0,1,7.61-1.533,17.26,17.26,0,0,1,7.585,1.533,14.422,14.422,0,0,1,5.243,4.222,18.019,18.019,0,0,1,3.066,6.374,30.573,30.573,0,0,1,1,7.987,29.962,29.962,0,0,1-1,7.933,17.754,17.754,0,0,1-3.066,6.293,14.07,14.07,0,0,1-5.243,4.142,17.845,17.845,0,0,1-7.585,1.479,18.032,18.032,0,0,1-7.61-1.479,14,14,0,0,1-5.269-4.142,17.72,17.72,0,0,1-3.067-6.293A29.87,29.87,0,0,1,360.352,299.994Zm23.826,0q0-11.728-6.831-11.726-6.993,0-6.992,11.726,0,5.862,1.694,8.741a5.666,5.666,0,0,0,5.244,2.876Q384.18,311.611,384.178,299.994Z" transform="translate(-320.415 -279.878)"/><path class="d" d="M440.131,295.583q2.26.915,4.061,1.855a12.216,12.216,0,0,1,3.092,2.26,8.992,8.992,0,0,1,1.99,3.172,14.218,14.218,0,0,1-.3,9.63,10.676,10.676,0,0,1-2.931,3.926,13.564,13.564,0,0,1-4.76,2.528,21.681,21.681,0,0,1-6.48.886,28.831,28.831,0,0,1-5.891-.538,36.777,36.777,0,0,1-5.514-1.668,30.633,30.633,0,0,1,.754-4.007q.538-2.124,1.291-4.328a22.179,22.179,0,0,0,8.606,2.151,9.052,9.052,0,0,0,4.276-.834,3,3,0,0,0,1.533-2.877,3.166,3.166,0,0,0-.325-1.481,3.234,3.234,0,0,0-.86-1.047,5.334,5.334,0,0,0-1.211-.727c-.447-.195-.9-.384-1.369-.563l-3.014-1.13a19.177,19.177,0,0,1-3.521-1.668,11.225,11.225,0,0,1-2.718-2.284,9.6,9.6,0,0,1-1.749-3.04,11.952,11.952,0,0,1-.619-4.032,12.5,12.5,0,0,1,.969-5.057,10.531,10.531,0,0,1,2.716-3.739,11.622,11.622,0,0,1,4.222-2.313,18.414,18.414,0,0,1,5.54-.779,25.664,25.664,0,0,1,5.3.538,43.658,43.658,0,0,1,5.46,1.559,27.327,27.327,0,0,1-.779,3.791,24.171,24.171,0,0,1-1.424,3.9q-1.4-.588-3.282-1.237a14.637,14.637,0,0,0-4.679-.644,7.949,7.949,0,0,0-1.64.161,4.789,4.789,0,0,0-1.4.509,2.712,2.712,0,0,0-1,.969,2.9,2.9,0,0,0-.377,1.533,2.685,2.685,0,0,0,1.021,2.313,10.139,10.139,0,0,0,2.421,1.292Z" transform="translate(-338.668 -279.878)"/><path class="d" d="M486.5,289.175H477.52a18.449,18.449,0,0,1,0-8.39h27.485q.214,1.185.322,2.206a18.935,18.935,0,0,1,.106,1.935,25.4,25.4,0,0,1-.428,4.248h-8.982V319.3a29.292,29.292,0,0,1-4.734.483,28.69,28.69,0,0,1-4.786-.483Z" transform="translate(-354.194 -280.141)"/><path class="d" d="M536.152,319.218q-1.24.214-2.261.325a19.331,19.331,0,0,1-1.99.107,21.827,21.827,0,0,1-2.232-.135q-1.263-.132-2.822-.4l12.046-38.4c.933-.109,1.8-.2,2.609-.27s1.624-.107,2.447-.107c.681,0,1.427.036,2.232.107s1.73.161,2.77.27l11.887,38.457a35.027,35.027,0,0,1-5.378.483q-1.076,0-2.151-.107T551,319.218l-2.045-7.475a23.585,23.585,0,0,1-2.876.644,17.259,17.259,0,0,1-2.716.216,17.527,17.527,0,0,1-2.528-.188,22.639,22.639,0,0,1-2.689-.566Zm7.53-28.4-3.6,13.823q.911.269,1.72.428a8.347,8.347,0,0,0,1.668.161,11.812,11.812,0,0,0,1.8-.135,15.711,15.711,0,0,0,1.858-.4Z" transform="translate(-368.613 -280.009)"/><path class="d" d="M591,280.632q2.635-.27,4.867-.512a43.944,43.944,0,0,1,4.708-.242,31.514,31.514,0,0,1,5.917.564,15.826,15.826,0,0,1,5.269,1.964,10.958,10.958,0,0,1,3.765,3.817,11.753,11.753,0,0,1,1.452,6.132,12.942,12.942,0,0,1-.457,3.577,12.269,12.269,0,0,1-1.182,2.824,11.26,11.26,0,0,1-1.614,2.151,15.278,15.278,0,0,1-1.749,1.56l8.39,16.566q-1.291.214-2.822.323t-2.77.106c-.72,0-1.551-.036-2.5-.106a21.389,21.389,0,0,1-2.5-.323l-7.636-17.588.483-.27a5.959,5.959,0,0,0,1.427-1.076,10.008,10.008,0,0,0,1.452-1.8,11.384,11.384,0,0,0,1.127-2.341,7.939,7.939,0,0,0,.458-2.689,4.8,4.8,0,0,0-1.5-3.926,5.667,5.667,0,0,0-3.711-1.236,6.368,6.368,0,0,0-.914.055,2.023,2.023,0,0,0-.486.106v30.767a29.066,29.066,0,0,1-4.679.483,28.72,28.72,0,0,1-4.786-.483Z" transform="translate(-387.184 -279.878)"/></g><g transform="translate(492.572 273.686)"><path class="e" d="M628.714,281.724h-1.686a3.168,3.168,0,0,1-.045-.522,4.035,4.035,0,0,1,.045-.567h4.506c.02.1.035.192.045.276a2.365,2.365,0,0,1,.015.276,2.429,2.429,0,0,1-.015.269,2.5,2.5,0,0,1-.045.269h-1.671V286.6q-.164.03-.3.045a2.72,2.72,0,0,1-.3.015,2.618,2.618,0,0,1-.276-.015,2.47,2.47,0,0,1-.277-.045Zm3.79-1.089c.119-.01.229-.02.328-.03s.2-.015.3-.015.186,0,.291.015l.335.03,1.477,3.268,1.462-3.268.306-.03a2.8,2.8,0,0,1,.291-.015c.1,0,.2,0,.306.015l.32.03.3,5.968c-.119.02-.222.035-.306.045a2.362,2.362,0,0,1-.276.015c-.08,0-.167,0-.262-.008a1.418,1.418,0,0,1-.305-.052l-.224-3.8-1.283,2.671a1.326,1.326,0,0,1-.209.037c-.06.006-.129.008-.209.008a3,3,0,0,1-.433-.045l-1.179-2.626-.194,3.76a2.678,2.678,0,0,1-.552.06,2.967,2.967,0,0,1-.582-.06Z" transform="translate(-626.983 -280.59)"/></g></g></g></svg>