<svg xmlns="http://www.w3.org/2000/svg" width="352" height="88" viewBox="0 0 352 88"><defs><style>.a{fill:#4d4d4d;}.b{fill:#4991bf;}.c{fill:none;}</style></defs><g transform="translate(12821 1954)"><g transform="translate(-12817 -1934)"><path class="a" d="M623.785,775.325H613.463l-12.819-30.866a1.356,1.356,0,0,0-2.5,0l-12.819,30.866H575l18.552-44.664a6.324,6.324,0,0,1,11.681,0Z" transform="translate(-575 -726.763)"/><path class="b" d="M616,808.915V796.267l13.552,6.324Z" transform="translate(-597.48 -764.871)"/><path class="a" d="M722.62,780.078v15.81h-8.131v-15.81a7.679,7.679,0,0,0-7.679-7.679h0a7.679,7.679,0,0,0-7.679,7.679v15.81H691v-15.81a15.81,15.81,0,0,1,15.81-15.81h0A15.81,15.81,0,0,1,722.62,780.078Z" transform="translate(-638.601 -747.326)"/><path class="a" d="M864.81,764.268V772.4a7.68,7.68,0,0,0-7.679,7.679v15.81H849v-15.81A15.81,15.81,0,0,1,864.81,764.268Z" transform="translate(-725.229 -747.326)"/><path class="a" d="M908.262,762.27a16.262,16.262,0,1,0,16.261,16.262A16.263,16.263,0,0,0,908.262,762.27Zm0,25.3a9.034,9.034,0,1,1,9.034-9.034A9.035,9.035,0,0,1,908.262,787.566Z" transform="translate(-748.806 -746.231)"/><path class="b" d="M1282.261,762.27a16.262,16.262,0,1,0,16.262,16.262A16.263,16.263,0,0,0,1282.261,762.27Zm0,25.3a9.034,9.034,0,1,1,9.034-9.034A9.034,9.034,0,0,1,1282.261,787.566Z" transform="translate(-953.863 -746.231)"/><circle class="b" cx="4.969" cy="4.969" r="4.969" transform="translate(227.214 0.228)"/><path class="b" d="M1012.785,726.763h-10.322l-12.819,30.866a1.356,1.356,0,0,1-2.5,0l-12.819-30.866H964l18.552,44.664a6.324,6.324,0,0,0,11.68,0Z" transform="translate(-788.282 -726.763)"/><path class="a" d="M793.393,728.268v20.106a15.359,15.359,0,1,0,0,24.836v2.94h8.131V728.268Zm-9.034,40.656a8.131,8.131,0,1,1,8.131-8.131A8.132,8.132,0,0,1,784.359,768.923Z" transform="translate(-681.367 -727.588)"/><path class="b" d="M1130.393,728.268v20.106a15.359,15.359,0,1,0,0,24.836v2.94h8.131V728.268Zm-9.034,40.656a8.131,8.131,0,1,1,8.131-8.131A8.132,8.132,0,0,1,1121.358,768.923Z" transform="translate(-866.138 -727.588)"/><rect class="b" width="8.131" height="32.524" transform="translate(228.117 16.038)"/><g transform="translate(275.999 16.038)"><path class="b" d="M1203.291,794.791q-7.664,0-12.478-4.232A14.269,14.269,0,0,1,1186,779.283v-.812a17.38,17.38,0,0,1,2.028-8.45,14.019,14.019,0,0,1,5.749-5.74,17.524,17.524,0,0,1,8.484-2.014q7.149,0,11.253,4.058a15.98,15.98,0,0,1,5.009,11.507,22.3,22.3,0,0,1-.227,3.419c0-.014-22.862,0-22.862,0a7.534,7.534,0,0,0,2.721,4.928,8.79,8.79,0,0,0,5.748,1.855,10.513,10.513,0,0,0,8.4-3.508l4.572,4.609a13.762,13.762,0,0,1-5.667,4.16A20.361,20.361,0,0,1,1203.291,794.791Zm-1.063-25.77a6.141,6.141,0,0,0-4.491,1.689,8.314,8.314,0,0,0-2.206,4.834h12.944v-.67a5.877,5.877,0,0,0-1.674-4.324A6.382,6.382,0,0,0,1202.229,769.021Z" transform="translate(-1186 -762.268)"/></g></g><rect class="c" width="352" height="88" transform="translate(-12821 -1954)"/></g></svg>