<svg width="245" height="48" viewBox="0 0 245 48" fill="none" xmlns="http://www.w3.org/2000/svg">
<g clip-path="url(#clip0)">
<path d="M5.71501 34.4006C5.68933 34.2766 5.67752 34.1479 5.65698 34.0221C5.54001 33.349 5.47903 32.6674 5.47466 31.9842C5.47466 31.9585 5.47851 31.9328 5.47877 31.9072C5.47877 31.8979 5.47748 31.8892 5.47748 31.8799C5.47748 28.5565 6.67455 25.6819 9.0687 23.2561C11.4628 20.8302 14.2979 19.6175 17.5739 19.6178C19.8588 19.5982 22.1046 20.2114 24.0625 21.3897V7.72755L23.808 7.47306C23.0271 6.69667 21.9706 6.26087 20.8694 6.26087C19.7682 6.26087 18.7118 6.69667 17.9308 7.47306L1.21219 24.1918C0.435797 24.9728 0 26.0292 0 27.1304C0 28.2316 0.435797 29.2881 1.21219 30.069L5.76997 34.6269C5.7502 34.5521 5.73016 34.4774 5.71501 34.4006Z" fill="#4D86BF"/>
<path d="M24.2544 31.9842C24.2544 30.7071 23.8757 29.4586 23.1662 28.3967C22.4566 27.3348 21.4482 26.5072 20.2683 26.0184C19.0884 25.5297 17.79 25.4018 16.5375 25.6509C15.2849 25.9001 14.1343 26.5151 13.2312 27.4181C12.3282 28.3211 11.7131 29.4717 11.464 30.7243C11.2148 31.9769 11.3426 33.2752 11.8313 34.4551C12.32 35.6351 13.1476 36.6436 14.2095 37.3531C15.2713 38.0627 16.5197 38.4415 17.7969 38.4415C18.6449 38.4416 19.4846 38.2746 20.268 37.9501C21.0515 37.6256 21.7634 37.1499 22.363 36.5503C22.9626 35.9507 23.4383 35.2388 23.7628 34.4554C24.0874 33.6719 24.2544 32.8322 24.2544 31.9842V31.9842Z" fill="#4D86BF"/>
<path d="M29.0155 37.0602C28.7916 37.5527 28.5353 38.0298 28.2485 38.4885L28.2254 38.5263C28.1047 38.7183 27.9814 38.9079 27.8505 39.0928C27.7449 39.2437 27.6325 39.3901 27.5192 39.536C26.0961 41.3778 24.1787 42.7772 21.9906 43.5708C19.8025 44.3644 17.4338 44.5196 15.1609 44.0183L17.9304 46.7878C18.7113 47.5642 19.7678 48 20.869 48C21.9702 48 23.0266 47.5642 23.8076 46.7878L31.2753 39.32L29.0155 37.0602Z" fill="#4D86BF"/>
<path d="M40.5266 24.1918L30.1196 13.784V29.2642L35.7254 34.8706L40.5274 30.0685C41.3036 29.2876 41.7393 28.2311 41.7391 27.13C41.739 26.0289 41.3031 24.9726 40.5266 24.1918Z" fill="#4D86BF"/>
<path d="M142.174 48H147.859L161.739 13.0435H156.549L142.174 48Z" fill="#2E2E2E"/>
<path d="M127.826 13.0435H133.511L147.391 48H142.201L127.826 13.0435Z" fill="#2E2E2E"/>
<path d="M220.304 13.0435C211.011 13.0435 203.478 20.8201 203.478 30.4128V48H208.853V30.4128C208.853 23.9297 213.98 18.6739 220.305 18.6739C226.631 18.6739 231.758 23.9297 231.758 30.4128C231.758 30.4091 231.758 30.4115 231.758 30.4128V48H237.13V30.4128C237.13 20.8201 229.597 13.0435 220.304 13.0435Z" fill="#2E2E2E"/>
<path d="M208.696 13.0435H203.478V48H208.696V13.0435Z" fill="#2E2E2E"/>
<path d="M122.609 0H117.391V48H122.609V0Z" fill="#2E2E2E"/>
<path d="M105.652 14.087C96.2871 14.087 88.6956 21.6787 88.6956 31.0435C88.6956 40.4082 96.2874 48 105.652 48C115.017 48 122.609 40.4082 122.609 31.0435C122.609 21.6787 115.018 14.087 105.652 14.087ZM105.652 42.5036C99.2781 42.5036 94.1108 37.3728 94.1108 31.0435C94.1108 24.7142 99.2781 19.5836 105.652 19.5836C112.026 19.5836 117.193 24.7144 117.193 31.0435C117.193 37.3725 112.027 42.5036 105.652 42.5036Z" fill="#2E2E2E"/>
<path d="M62.6175 37.3043L73.0434 31.0344L62.6086 24.7826L62.6175 37.3043Z" fill="#4D86BF"/>
<path d="M66.5217 14.087C57.1567 14.087 49.5652 21.6787 49.5652 31.0435C49.5652 40.4082 57.157 48 66.5217 48C75.8864 48 83.4782 40.4082 83.4782 31.0435C83.4782 21.6787 75.8877 14.087 66.5217 14.087ZM66.5217 42.5036C60.1477 42.5036 54.9804 37.3728 54.9804 31.0435C54.9804 24.7142 60.1477 19.5836 66.5217 19.5836C72.8957 19.5836 78.063 24.7144 78.063 31.0435C78.063 37.3725 72.8967 42.5036 66.5217 42.5036Z" fill="#2E2E2E"/>
<path d="M83.4781 13.0435H78.2607V48H83.4781V13.0435Z" fill="#2E2E2E"/>
<path d="M181.304 14.087C171.939 14.087 164.348 21.6787 164.348 31.0435C164.348 40.4082 171.94 48 181.304 48C190.669 48 198.261 40.4082 198.261 31.0435C198.261 21.6787 190.67 14.087 181.304 14.087ZM181.304 42.5036C174.93 42.5036 169.763 37.3728 169.763 31.0435C169.763 24.7142 174.93 19.5836 181.304 19.5836C187.678 19.5836 192.846 24.7144 192.846 31.0435C192.846 37.3725 187.679 42.5036 181.304 42.5036Z" fill="#2E2E2E"/>
<path d="M198.261 13.0435H193.043V48H198.261V13.0435Z" fill="#2E2E2E"/>
</g>
<defs>
<clipPath id="clip0">
<rect width="244.174" height="48" fill="white"/>
</clipPath>
</defs>
</svg>
