<svg xmlns="http://www.w3.org/2000/svg" width="40" height="40" viewBox="0 0 40 40"><defs><style>.a,.d{fill:#fff;}.a{stroke:#ccc;}.b,.f{fill:none;}.b{stroke:rgba(73,145,191,0.8);stroke-linecap:round;stroke-width:3px;}.b,.d{stroke-miterlimit:10;}.c{fill:rgba(73,145,191,0.8);}.d{stroke:#000;}.e{stroke:none;}</style></defs><g transform="translate(-770 -296)"><g transform="translate(-48)"><g class="a" transform="translate(818 296)"><circle class="e" cx="20" cy="20" r="20"/><circle class="f" cx="20" cy="20" r="19.5"/></g></g><g transform="translate(770.54 295.54)"><path class="b" d="M29.053,26.816A11.454,11.454,0,1,1,19.885,8.46,11.371,11.371,0,0,1,29.053,13.1"/><path class="c" d="M-3605.54,6846.961v-2h-8.5a1.5,1.5,0,0,1-1.5-1.5,1.5,1.5,0,0,1,1.5-1.5h8.5v-2a.5.5,0,0,1,.8-.4l4.667,3.5a.5.5,0,0,1,0,.8l-4.667,3.5a.5.5,0,0,1-.3.1A.5.5,0,0,1-3605.54,6846.961Z" transform="translate(3635.333 -6823.501)"/><path class="d" d="M20,20" transform="translate(-0.088 -0.04)"/></g></g></svg>