<svg xmlns="http://www.w3.org/2000/svg" width="29.75" height="27.25" viewBox="0 0 29.75 27.25">
  <g id="グループ_2817" data-name="グループ 2817" transform="translate(-776.25 -302.5)">
    <g id="グループ_2815" data-name="グループ 2815" transform="translate(770.54 295.54)">
      <path id="パス_1118" data-name="パス 1118" d="M29.053,26.816A11.454,11.454,0,1,1,19.885,8.46,11.371,11.371,0,0,1,29.053,13.1" fill="none" stroke="rgba(73,145,191,0.5)" stroke-linecap="round" stroke-miterlimit="10" stroke-width="3"/>
      <g id="グループ_2818" data-name="グループ 2818">
        <path id="合体_2" data-name="合体 2" d="M-3605.54,6846.961v-2h-8.5a1.5,1.5,0,0,1-1.5-1.5,1.5,1.5,0,0,1,1.5-1.5h8.5v-2a.5.5,0,0,1,.8-.4l4.667,3.5a.5.5,0,0,1,0,.8l-4.667,3.5a.5.5,0,0,1-.3.1A.5.5,0,0,1-3605.54,6846.961Z" transform="translate(3635.333 -6823.501)" fill="rgba(73,145,191,0.5)"/>
      </g>
      <path id="パス_1120" data-name="パス 1120" d="M20,20" transform="translate(-0.088 -0.04)" fill="#fff" stroke="#000" stroke-miterlimit="10" stroke-width="1"/>
    </g>
    <g id="グループ_2816" data-name="グループ 2816" transform="translate(771.5 294.5)">
      <circle id="楕円形_274" data-name="楕円形 274" cx="7" cy="7" r="7" transform="translate(5.5 20.5)" fill="#4991bf" stroke="#fff" stroke-miterlimit="10" stroke-width="1.5"/>
      <text id="_1" data-name="1" transform="translate(12.5 31.5)" fill="#fff" font-size="12" font-family="Roboto-Bold, Roboto" font-weight="700"><tspan x="-3.442" y="0">1</tspan></text>
    </g>
  </g>
</svg>
