<svg width="32" height="32" viewBox="0 0 32 32" fill="none" xmlns="http://www.w3.org/2000/svg">
<path fill-rule="evenodd" clip-rule="evenodd" d="M25.334 6.66536H10.0007V1.33203H25.334V6.66536Z" fill="#FFC107"/>
<path fill-rule="evenodd" clip-rule="evenodd" d="M25.334 28.666H6.66736L6.66708 14.6779H25.3338L25.334 28.666ZM8.18533 1.06857C8.4514 0.810236 8.80433 0.666394 9.17165 0.666394H10.0004V6.66639H12.0004V0.666394H13.3337V6.66639H15.3337V0.666394H16.6671V6.66639H18.6671V0.666394H20.0004V6.66639H22.0004V0.666394H23.3338V6.66639H25.3338V0.666394L26.6674 0.666016C27.4577 0.666016 28.001 1.19314 28.001 1.99935L28.0002 29.9993C28.0002 30.8053 27.4575 31.3327 26.6671 31.3327H5.33378C4.54342 31.3327 4.00041 30.8053 4.00041 29.9993V5.75531C4.00041 5.35554 4.1613 4.97338 4.44516 4.69771L8.18533 1.06857Z" fill="#5E5E5E"/>
<path fill-rule="evenodd" clip-rule="evenodd" d="M25.334 27.9993H7.33398V14.666H25.334V27.9993Z" fill="#999999"/>
</svg>
