<svg xmlns="http://www.w3.org/2000/svg" width="120" height="120" viewBox="0 0 120 120">
  <path id="smile-wink-solid" d="M0,68A60,60,0,1,0,60,8,59.99,59.99,0,0,0,0,68ZM48.387,56.387a7.742,7.742,0,1,1-7.742-7.742A7.734,7.734,0,0,1,48.387,56.387Zm38.347,3.992c-3.581-3.194-11.177-3.194-14.758,0l-2.3,2.056a2.9,2.9,0,0,1-4.79-2.613c.968-6.1,8.274-10.185,14.492-10.185S92.9,53.726,93.871,59.823a2.9,2.9,0,0,1-4.79,2.613ZM38.177,84.887a28.427,28.427,0,0,0,43.645,0c3.29-3.919,9.218,1.016,5.952,4.96a36.162,36.162,0,0,1-55.548-.024c-3.266-3.944,2.71-8.879,5.952-4.935Z" transform="translate(0 -8)" fill="#4991bf"/>
</svg>
