<svg xmlns="http://www.w3.org/2000/svg" width="24" height="24" viewBox="0 0 24 24"><defs><style>.a{fill:none;}.b{fill:#707070;}</style></defs><g transform="translate(-1 -8)"><rect class="a" width="24" height="24" transform="translate(1 8)"/><path class="b" d="M17.143,40a3.429,3.429,0,1,0-3.429-3.429A3.429,3.429,0,0,0,17.143,40Zm0-5.143a1.714,1.714,0,1,1-1.714,1.714A1.715,1.715,0,0,1,17.143,34.857ZM9.718,40.714A4.279,4.279,0,0,0,8.45,40.9a5.445,5.445,0,0,1-3.193,0,4.4,4.4,0,0,0-1.268-.189,3.936,3.936,0,0,0-3.3,1.675A4.143,4.143,0,0,0,0,44.686v1.6A1.715,1.715,0,0,0,1.714,48H12a1.715,1.715,0,0,0,1.714-1.714v-1.6a4.093,4.093,0,0,0-.7-2.3,3.936,3.936,0,0,0-3.3-1.675ZM6.857,40a4,4,0,1,0-4-4A4,4,0,0,0,6.857,40Zm15.418,2.182a3.283,3.283,0,0,0-2.746-1.4c-.993,0-1.243.357-2.386.357s-1.393-.357-2.386-.357a3.487,3.487,0,0,0-1.364.289,4.923,4.923,0,0,1,.571.675,5.243,5.243,0,0,1,.429.786,1.751,1.751,0,0,1,.364-.039,17.48,17.48,0,0,0,2.386.357,17.384,17.384,0,0,0,2.386-.357,1.573,1.573,0,0,1,1.325.639,1.7,1.7,0,0,1,.289.954v1.054H14.857v1.143a3.01,3.01,0,0,1-.057.571h6.629a1.428,1.428,0,0,0,1.429-1.429V44.1A3.412,3.412,0,0,0,22.275,42.182Z" transform="translate(1.5 -20)"/></g></svg>