<svg xmlns="http://www.w3.org/2000/svg" width="24" height="24" viewBox="0 0 24 24"><defs><style>.a{fill:none;}.b{opacity:0.4;}.c{fill:#707070;}</style></defs><g transform="translate(-197 -481)"><rect class="a" width="24" height="24" transform="translate(197 481)"/><g transform="translate(199 485)"><path class="b" d="M360.447,225.515l-3.6-1.406a.969.969,0,0,0-.694,0l-3.6,1.406a.845.845,0,0,0-.553.778,7.1,7.1,0,0,0,4.153,6.684.969.969,0,0,0,.694,0A7.081,7.081,0,0,0,361,226.293.845.845,0,0,0,360.447,225.515Zm-3.947,5.978v-5.909l2.984,1.166A5.59,5.59,0,0,1,356.5,231.493Z" transform="translate(-341 -217.043)"/><path class="c" d="M7,8A4,4,0,1,0,3,4,4,4,0,0,0,7,8Zm3,1.25a1.775,1.775,0,0,1,.034-.225C9.956,9.022,9.881,9,9.8,9H9.278A5.44,5.44,0,0,1,4.722,9H4.2A4.2,4.2,0,0,0,0,13.2v1.3A1.5,1.5,0,0,0,1.5,16h11a1.538,1.538,0,0,0,.6-.125A8.4,8.4,0,0,1,10,9.25Z"/></g></g></svg>